0
SECTION
2
HEADER
9
$INSUNITS
70
4
9
$ACADVER
1
AC1014
9
$HANDSEED
5
FFFF
0
ENDSEC
0
SECTION
2
TABLES
0
TABLE
2
VPORT
5
8
100
AcDbSymbolTable
0
ENDTAB
0
TABLE
2
LTYPE
5
5
100
AcDbSymbolTable
0
LTYPE
5
14
100
AcDbSymbolTableRecord
100
AcDbLinetypeTableRecord
2
BYBLOCK
70
0
0
LTYPE
5
15
100
AcDbSymbolTableRecord
100
AcDbLinetypeTableRecord
2
BYLAYER
70
0
0
ENDTAB
0
TABLE
2
LAYER
5
2
100
AcDbSymbolTable
70
2
0
LAYER
5
50
100
AcDbSymbolTableRecord
100
AcDbLayerTableRecord
2
0
70
0
6
CONTINUOUS
0
ENDTAB
0
TABLE
2
STYLE
5
3
100
AcDbSymbolTable
70
1
0
STYLE
5
11
100
AcDbSymbolTableRecord
100
AcDbTextStyleTableRecord
2
STANDARD
70
0
0
ENDTAB
0
TABLE
2
VIEW
5
6
100
AcDbSymbolTable
70
0
0
ENDTAB
0
TABLE
2
UCS
5
7
100
AcDbSymbolTable
70
0
0
ENDTAB
0
TABLE
2
APPID
5
9
100
AcDbSymbolTable
70
2
0
APPID
5
12
100
AcDbSymbolTableRecord
100
AcDbRegAppTableRecord
2
ACAD
70
0
0
ENDTAB
0
TABLE
2
DIMSTYLE
5
A
100
AcDbSymbolTable
70
1
0
ENDTAB
0
TABLE
2
BLOCK_RECORD
5
1
100
AcDbSymbolTable
70
1
0
BLOCK_RECORD
5
1F
100
AcDbSymbolTableRecord
100
AcDbBlockTableRecord
2
*MODEL_SPACE
0
BLOCK_RECORD
5
1B
100
AcDbSymbolTableRecord
100
AcDbBlockTableRecord
2
*PAPER_SPACE
0
ENDTAB
0
ENDSEC
0
SECTION
2
BLOCKS
0
BLOCK
5
20
100
AcDbEntity
100
AcDbBlockBegin
2
*MODEL_SPACE
0
ENDBLK
5
21
100
AcDbEntity
100
AcDbBlockEnd
0
BLOCK
5
1C
100
AcDbEntity
100
AcDbBlockBegin
2
*PAPER_SPACE
0
ENDBLK
5
1D
100
AcDbEntity
100
AcDbBlockEnd
0
ENDSEC
0
SECTION
2
ENTITIES
0
LINE
5
100
100
AcDbEntity
8
0
100
AcDbLine
10
-169.38099
20
142.07399999999998
30
0
11
-49.853022740352429
21
142.07399999999998
31
0
0
LWPOLYLINE
5
101
100
AcDbEntity
8
0
100
AcDbPolyline
90
48
70
1
43
0.0
10
-76.566399999999987
20
18.049600000000005
10
-78.991700000000009
20
19.4496
10
-78.579699999999988
20
20.163499999999999
10
-81.377199999999988
20
21.778500000000001
10
-80.513300000000001
20
23.272300000000001
10
-81.310900000000004
20
23.732600000000001
10
-79.660199999999989
20
26.590600000000002
10
-78.863700000000009
20
26.130400000000002
10
-78.001099999999994
20
27.624200000000002
10
-77.63848157150781
20
28.251806119673738
10
-78.045199999999994
20
28.486799999999999
10
-77.645499999999984
20
29.1799
10
-78.510900000000007
20
29.680199999999999
10
-71.512
20
41.804200000000009
10
-70.644999999999982
20
41.303899999999999
10
-70.24499999999999
20
41.997100000000003
10
-69.839234686766844
20
41.762711571670401
10
-69.477000000000004
20
42.389800000000008
10
-68.61399999999999
20
43.883800000000008
10
-69.409999999999982
20
44.343800000000002
10
-67.76100000000001
20
47.201999999999998
10
-66.96299999999998
20
46.741599999999998
10
-66.102000000000004
20
48.235300000000009
10
-63.304000000000002
20
46.620300000000007
10
-62.892000000000003
20
47.335700000000003
10
-60.467000000000006
20
45.935499999999998
10
-60.879000000000005
20
45.220500000000001
10
-55.448999999999991
20
42.085299999999997
10
-56.312000000000005
20
40.59170000000001
10
-55.46299999999998
20
40.102400000000003
10
-57.114000000000004
20
37.244200000000006
10
-57.961999999999996
20
37.733499999999999
10
-58.823999999999998
20
36.239800000000002
10
-59.491353411755398
20
36.625144444834845
10
-59.853999999999992
20
35.997100000000003
10
-60.252999999999986
20
35.303899999999999
10
-59.387999999999977
20
34.803800000000003
10
-66.387000000000015
20
22.6798
10
-67.253999999999991
20
23.18
10
-67.652999999999992
20
22.486799999999999
10
-68.015813635613299
20
21.858438144396612
10
-67.350000000000009
20
21.474000000000004
10
-68.212000000000003
20
19.9802
10
-67.36399999999999
20
19.489599999999999
10
-69.012999999999977
20
16.631499999999999
10
-69.86099999999999
20
17.1221
10
-70.725000000000009
20
15.628299999999999
10
-76.153999999999982
20
18.763400000000001
0
LWPOLYLINE
5
102
100
AcDbEntity
8
0
100
AcDbPolyline
90
20
70
1
43
0.0
10
-43.077999999999975
20
24.953500000000002
10
-42.383999999999993
20
24.553899999999999
10
-43.934000000000005
20
21.869499999999999
10
-44.627999999999986
20
22.270499999999998
10
-45.127999999999993
20
21.403700000000004
10
-57.252000000000002
20
28.404100000000003
10
-56.751999999999995
20
29.269600000000004
10
-57.444999999999993
20
29.6706
10
-55.894999999999982
20
32.3536
10
-55.201000000000001
20
31.953900000000001
10
-52.301999999999992
20
36.976799999999997
10
-52.99499999999999
20
37.376500000000007
10
-51.445
20
40.062500000000007
10
-50.751999999999995
20
39.6614
10
-50.250999999999991
20
40.528199999999998
10
-38.127000000000024
20
33.527700000000003
10
-38.627999999999993
20
32.662199999999999
10
-37.934000000000012
20
32.262599999999999
10
-39.484999999999985
20
29.576799999999999
10
-40.177999999999969
20
29.976500000000001
0
LWPOLYLINE
5
103
100
AcDbEntity
8
0
100
AcDbPolyline
90
20
70
1
43
0.0
10
-82.581600000000009
20
87.825100000000006
10
-83.381
20
87.825100000000006
10
-83.381
20
82.025100000000009
10
-82.581600000000009
20
82.025100000000009
10
-82.581600000000009
20
78.924499999999995
10
-83.381
20
78.924499999999995
10
-83.381
20
77.925399999999996
10
-97.38030000000002
20
77.925399999999996
10
-97.38030000000002
20
78.924499999999995
10
-98.181100000000015
20
78.924499999999995
10
-98.181100000000015
20
82.025100000000009
10
-97.38030000000002
20
82.025100000000009
10
-97.38030000000002
20
87.825100000000006
10
-98.181100000000015
20
87.825100000000006
10
-98.181100000000015
20
90.924200000000013
10
-97.38030000000002
20
90.924200000000013
10
-97.38030000000002
20
91.924700000000001
10
-83.381
20
91.924700000000001
10
-83.381
20
90.924200000000013
10
-82.581600000000009
20
90.924200000000013
0
LWPOLYLINE
5
104
100
AcDbEntity
8
0
100
AcDbPolyline
90
20
70
1
43
0.0
10
-83.381
20
97.974500000000006
10
-83.381
20
96.975400000000008
10
-97.38030000000002
20
96.975400000000008
10
-97.38030000000002
20
97.974500000000006
10
-98.181100000000015
20
97.974500000000006
10
-98.181100000000015
20
101.07500000000002
10
-97.38030000000002
20
101.07500000000002
10
-97.38030000000002
20
106.875
10
-98.181100000000015
20
106.875
10
-98.181100000000015
20
109.97399999999999
10
-97.38030000000002
20
109.97399999999999
10
-97.38030000000002
20
110.97499999999999
10
-83.381
20
110.97499999999999
10
-83.381
20
109.97399999999999
10
-82.581600000000009
20
109.97399999999999
10
-82.581600000000009
20
106.875
10
-83.381
20
106.875
10
-83.381
20
101.07500000000002
10
-82.581600000000009
20
101.07500000000002
10
-82.581600000000009
20
97.974500000000006
0
LWPOLYLINE
5
105
100
AcDbEntity
8
0
100
AcDbPolyline
90
20
70
1
43
0.0
10
-64.330999999999989
20
68.775099999999995
10
-64.330999999999989
20
62.975099999999998
10
-63.532000000000004
20
62.975099999999998
10
-63.532000000000004
20
59.874499999999998
10
-64.330999999999989
20
59.874499999999998
10
-64.330999999999989
20
58.875400000000006
10
-78.331699999999984
20
58.875400000000006
10
-78.331699999999984
20
59.874499999999998
10
-79.131099999999989
20
59.874499999999998
10
-79.131099999999989
20
62.975099999999998
10
-78.331699999999984
20
62.975099999999998
10
-78.331699999999984
20
68.775099999999995
10
-79.131099999999989
20
68.775099999999995
10
-79.131099999999989
20
71.874200000000002
10
-78.331699999999984
20
71.874200000000002
10
-78.331699999999984
20
72.874700000000004
10
-64.330999999999989
20
72.874700000000004
10
-64.330999999999989
20
71.874200000000002
10
-63.532000000000004
20
71.874200000000002
10
-63.532000000000004
20
68.775099999999995
0
LWPOLYLINE
5
106
100
AcDbEntity
8
0
100
AcDbPolyline
90
20
70
1
43
0.0
10
-63.532000000000004
20
106.875
10
-64.330999999999989
20
106.875
10
-64.330999999999989
20
101.07500000000002
10
-63.532000000000004
20
101.07500000000002
10
-63.532000000000004
20
97.974500000000006
10
-64.330999999999989
20
97.974500000000006
10
-64.330999999999989
20
96.975400000000008
10
-78.331699999999984
20
96.975400000000008
10
-78.331699999999984
20
97.974500000000006
10
-79.131099999999989
20
97.974500000000006
10
-79.131099999999989
20
101.07500000000002
10
-78.331699999999984
20
101.07500000000002
10
-78.331699999999984
20
106.875
10
-79.131099999999989
20
106.875
10
-79.131099999999989
20
109.97399999999999
10
-78.331699999999984
20
109.97399999999999
10
-78.331699999999984
20
110.97499999999999
10
-64.330999999999989
20
110.97499999999999
10
-64.330999999999989
20
109.97399999999999
10
-63.532000000000004
20
109.97399999999999
0
LWPOLYLINE
5
107
100
AcDbEntity
8
0
100
AcDbPolyline
90
20
70
1
43
0.0
10
-64.330999999999989
20
117.02500000000001
10
-64.330999999999989
20
116.02500000000001
10
-78.331699999999984
20
116.02500000000001
10
-78.331699999999984
20
117.02500000000001
10
-79.131099999999989
20
117.02500000000001
10
-79.131099999999989
20
120.12500000000001
10
-78.331699999999984
20
120.12500000000001
10
-78.331699999999984
20
125.92500000000001
10
-79.131099999999989
20
125.92500000000001
10
-79.131099999999989
20
129.024
10
-78.331699999999984
20
129.024
10
-78.331699999999984
20
130.02500000000001
10
-64.330999999999989
20
130.02500000000001
10
-64.330999999999989
20
129.024
10
-63.532000000000004
20
129.024
10
-63.532000000000004
20
125.92500000000001
10
-64.330999999999989
20
125.92500000000001
10
-64.330999999999989
20
120.12500000000001
10
-63.532000000000004
20
120.12500000000001
10
-63.532000000000004
20
117.02500000000001
0
LWPOLYLINE
5
108
100
AcDbEntity
8
0
100
AcDbPolyline
90
20
70
1
43
0.0
10
-174.38099
20
129.024
10
-173.58035000000001
20
129.024
10
-173.58035000000001
20
130.02500000000001
10
-159.58079999999998
20
130.02500000000001
10
-159.58079999999998
20
129.024
10
-158.78019999999998
20
129.024
10
-158.78019999999998
20
125.92500000000001
10
-159.58079999999998
20
125.92500000000001
10
-159.58079999999998
20
120.12500000000001
10
-158.78019999999998
20
120.12500000000001
10
-158.78019999999998
20
117.02500000000001
10
-159.58079999999998
20
117.02500000000001
10
-159.58079999999998
20
116.02500000000001
10
-173.58035000000001
20
116.02500000000001
10
-173.58035000000001
20
117.02500000000001
10
-174.38099
20
117.02500000000001
10
-174.38099
20
120.12500000000001
10
-173.58035000000001
20
120.12500000000001
10
-173.58035000000001
20
125.92500000000001
10
-174.38099
20
125.92500000000001
0
LWPOLYLINE
5
109
100
AcDbEntity
8
0
100
AcDbPolyline
90
20
70
1
43
0.0
10
-116.43029999999999
20
125.92500000000001
10
-117.23110000000003
20
125.92500000000001
10
-117.23110000000003
20
129.024
10
-116.43029999999999
20
129.024
10
-116.43029999999999
20
130.02500000000001
10
-102.43100000000001
20
130.02500000000001
10
-102.43100000000001
20
129.024
10
-101.6302
20
129.024
10
-101.6302
20
125.92500000000001
10
-102.43100000000001
20
125.92500000000001
10
-102.43100000000001
20
120.12500000000001
10
-101.6302
20
120.12500000000001
10
-101.6302
20
117.02500000000001
10
-102.43100000000001
20
117.02500000000001
10
-102.43100000000001
20
116.02500000000001
10
-116.43029999999999
20
116.02500000000001
10
-116.43029999999999
20
117.02500000000001
10
-117.23110000000003
20
117.02500000000001
10
-117.23110000000003
20
120.12500000000001
10
-116.43029999999999
20
120.12500000000001
0
LWPOLYLINE
5
110
100
AcDbEntity
8
0
100
AcDbPolyline
90
20
70
1
43
0.0
10
-98.181100000000015
20
129.024
10
-97.38030000000002
20
129.024
10
-97.38030000000002
20
130.02500000000001
10
-83.381
20
130.02500000000001
10
-83.381
20
129.024
10
-82.581600000000009
20
129.024
10
-82.581600000000009
20
125.92500000000001
10
-83.381
20
125.92500000000001
10
-83.381
20
120.12500000000001
10
-82.581600000000009
20
120.12500000000001
10
-82.581600000000009
20
117.02500000000001
10
-83.381
20
117.02500000000001
10
-83.381
20
116.02500000000001
10
-97.38030000000002
20
116.02500000000001
10
-97.38030000000002
20
117.02500000000001
10
-98.181100000000015
20
117.02500000000001
10
-98.181100000000015
20
120.12500000000001
10
-97.38030000000002
20
120.12500000000001
10
-97.38030000000002
20
125.92500000000001
10
-98.181100000000015
20
125.92500000000001
0
LWPOLYLINE
5
111
100
AcDbEntity
8
0
100
AcDbPolyline
90
20
70
1
43
0.0
10
-121.48099999999999
20
120.12500000000001
10
-120.68020000000001
20
120.12500000000001
10
-120.68020000000001
20
117.02500000000001
10
-121.48099999999999
20
117.02500000000001
10
-121.48099999999999
20
116.02500000000001
10
-135.4803
20
116.02500000000001
10
-135.4803
20
117.02500000000001
10
-136.28109999999998
20
117.02500000000001
10
-136.28109999999998
20
120.12500000000001
10
-135.4803
20
120.12500000000001
10
-135.4803
20
125.92500000000001
10
-136.28109999999998
20
125.92500000000001
10
-136.28109999999998
20
129.024
10
-135.4803
20
129.024
10
-135.4803
20
130.02500000000001
10
-121.48099999999999
20
130.02500000000001
10
-121.48099999999999
20
129.024
10
-120.68020000000001
20
129.024
10
-120.68020000000001
20
125.92500000000001
10
-121.48099999999999
20
125.92500000000001
0
LWPOLYLINE
5
112
100
AcDbEntity
8
0
100
AcDbPolyline
90
20
70
1
43
0.0
10
-140.53100000000001
20
116.02500000000001
10
-154.53030000000001
20
116.02500000000001
10
-154.53030000000001
20
117.02500000000001
10
-155.33100000000002
20
117.02500000000001
10
-155.33100000000002
20
120.12500000000001
10
-154.53030000000001
20
120.12500000000001
10
-154.53030000000001
20
125.92500000000001
10
-155.33100000000002
20
125.92500000000001
10
-155.33100000000002
20
129.024
10
-154.53030000000001
20
129.024
10
-154.53030000000001
20
130.02500000000001
10
-140.53100000000001
20
130.02500000000001
10
-140.53100000000001
20
129.024
10
-139.73020000000002
20
129.024
10
-139.73020000000002
20
125.92500000000001
10
-140.53100000000001
20
125.92500000000001
10
-140.53100000000001
20
120.12500000000001
10
-139.73020000000002
20
120.12500000000001
10
-139.73020000000002
20
117.02500000000001
10
-140.53100000000001
20
117.02500000000001
0
LWPOLYLINE
5
113
100
AcDbEntity
8
0
100
AcDbPolyline
90
20
70
1
43
0.0
10
-120.68020000000001
20
106.875
10
-121.48099999999999
20
106.875
10
-121.48099999999999
20
101.07500000000002
10
-120.68020000000001
20
101.07500000000002
10
-120.68020000000001
20
97.974500000000006
10
-121.48099999999999
20
97.974500000000006
10
-121.48099999999999
20
96.975400000000008
10
-135.4803
20
96.975400000000008
10
-135.4803
20
97.974500000000006
10
-136.28109999999998
20
97.974500000000006
10
-136.28109999999998
20
101.07500000000002
10
-135.4803
20
101.07500000000002
10
-135.4803
20
106.875
10
-136.28109999999998
20
106.875
10
-136.28109999999998
20
109.97399999999999
10
-135.4803
20
109.97399999999999
10
-135.4803
20
110.97499999999999
10
-121.48099999999999
20
110.97499999999999
10
-121.48099999999999
20
109.97399999999999
10
-120.68020000000001
20
109.97399999999999
0
LWPOLYLINE
5
114
100
AcDbEntity
8
0
100
AcDbPolyline
90
20
70
1
43
0.0
10
-158.78019999999998
20
109.97399999999999
10
-158.78019999999998
20
106.875
10
-159.58079999999998
20
106.875
10
-159.58079999999998
20
101.07500000000002
10
-158.78019999999998
20
101.07500000000002
10
-158.78019999999998
20
97.974500000000006
10
-159.58079999999998
20
97.974500000000006
10
-159.58079999999998
20
96.975400000000008
10
-173.58035000000001
20
96.975400000000008
10
-173.58035000000001
20
97.974500000000006
10
-174.38099
20
97.974500000000006
10
-174.38099
20
101.07500000000002
10
-173.58035000000001
20
101.07500000000002
10
-173.58035000000001
20
106.875
10
-174.38099
20
106.875
10
-174.38099
20
109.97399999999999
10
-173.58035000000001
20
109.97399999999999
10
-173.58035000000001
20
110.97499999999999
10
-159.58079999999998
20
110.97499999999999
10
-159.58079999999998
20
109.97399999999999
0
LWPOLYLINE
5
115
100
AcDbEntity
8
0
100
AcDbPolyline
90
20
70
1
43
0.0
10
-117.23110000000003
20
109.97399999999999
10
-116.43029999999999
20
109.97399999999999
10
-116.43029999999999
20
110.97499999999999
10
-102.43100000000001
20
110.97499999999999
10
-102.43100000000001
20
109.97399999999999
10
-101.6302
20
109.97399999999999
10
-101.6302
20
106.875
10
-102.43100000000001
20
106.875
10
-102.43100000000001
20
101.07500000000002
10
-101.6302
20
101.07500000000002
10
-101.6302
20
97.974500000000006
10
-102.43100000000001
20
97.974500000000006
10
-102.43100000000001
20
96.975400000000008
10
-116.43029999999999
20
96.975400000000008
10
-116.43029999999999
20
97.974500000000006
10
-117.23110000000003
20
97.974500000000006
10
-117.23110000000003
20
101.07500000000002
10
-116.43029999999999
20
101.07500000000002
10
-116.43029999999999
20
106.875
10
-117.23110000000003
20
106.875
0
LWPOLYLINE
5
116
100
AcDbEntity
8
0
100
AcDbPolyline
90
20
70
1
43
0.0
10
-155.33100000000002
20
109.97399999999999
10
-154.53030000000001
20
109.97399999999999
10
-154.53030000000001
20
110.97499999999999
10
-140.53100000000001
20
110.97499999999999
10
-140.53100000000001
20
109.97399999999999
10
-139.73020000000002
20
109.97399999999999
10
-139.73020000000002
20
106.875
10
-140.53100000000001
20
106.875
10
-140.53100000000001
20
101.07500000000002
10
-139.73020000000002
20
101.07500000000002
10
-139.73020000000002
20
97.974500000000006
10
-140.53100000000001
20
97.974500000000006
10
-140.53100000000001
20
96.975400000000008
10
-154.53030000000001
20
96.975400000000008
10
-154.53030000000001
20
97.974500000000006
10
-155.33100000000002
20
97.974500000000006
10
-155.33100000000002
20
101.07500000000002
10
-154.53030000000001
20
101.07500000000002
10
-154.53030000000001
20
106.875
10
-155.33100000000002
20
106.875
0
LWPOLYLINE
5
117
100
AcDbEntity
8
0
100
AcDbPolyline
90
20
70
1
43
0.0
10
-102.43100000000001
20
52.824200000000005
10
-101.6302
20
52.824200000000005
10
-101.6302
20
49.725099999999998
10
-102.43100000000001
20
49.725099999999998
10
-102.43100000000001
20
43.925100000000008
10
-101.6302
20
43.925100000000008
10
-101.6302
20
40.824500000000008
10
-102.43100000000001
20
40.824500000000008
10
-102.43100000000001
20
39.825400000000002
10
-116.43029999999999
20
39.825400000000002
10
-116.43029999999999
20
40.824500000000008
10
-117.23110000000003
20
40.824500000000008
10
-117.23110000000003
20
43.925100000000008
10
-116.43029999999999
20
43.925100000000008
10
-116.43029999999999
20
49.725099999999998
10
-117.23110000000003
20
49.725099999999998
10
-117.23110000000003
20
52.824200000000005
10
-116.43029999999999
20
52.824200000000005
10
-116.43029999999999
20
53.824700000000007
10
-102.43100000000001
20
53.824700000000007
0
LWPOLYLINE
5
118
100
AcDbEntity
8
0
100
AcDbPolyline
90
20
70
1
43
0.0
10
-101.6302
20
59.874499999999998
10
-102.43100000000001
20
59.874499999999998
10
-102.43100000000001
20
58.875400000000006
10
-116.43029999999999
20
58.875400000000006
10
-116.43029999999999
20
59.874499999999998
10
-117.23110000000003
20
59.874499999999998
10
-117.23110000000003
20
62.975099999999998
10
-116.43029999999999
20
62.975099999999998
10
-116.43029999999999
20
68.775099999999995
10
-117.23110000000003
20
68.775099999999995
10
-117.23110000000003
20
71.874200000000002
10
-116.43029999999999
20
71.874200000000002
10
-116.43029999999999
20
72.874700000000004
10
-102.43100000000001
20
72.874700000000004
10
-102.43100000000001
20
71.874200000000002
10
-101.6302
20
71.874200000000002
10
-101.6302
20
68.775099999999995
10
-102.43100000000001
20
68.775099999999995
10
-102.43100000000001
20
62.975099999999998
10
-101.6302
20
62.975099999999998
0
LWPOLYLINE
5
119
100
AcDbEntity
8
0
100
AcDbPolyline
90
20
70
1
43
0.0
10
-83.381
20
72.874700000000004
10
-83.381
20
71.874200000000002
10
-82.581600000000009
20
71.874200000000002
10
-82.581600000000009
20
68.775099999999995
10
-83.381
20
68.775099999999995
10
-83.381
20
62.975099999999998
10
-82.581600000000009
20
62.975099999999998
10
-82.581600000000009
20
59.874499999999998
10
-83.381
20
59.874499999999998
10
-83.381
20
58.875400000000006
10
-97.38030000000002
20
58.875400000000006
10
-97.38030000000002
20
59.874499999999998
10
-98.181100000000015
20
59.874499999999998
10
-98.181100000000015
20
62.975099999999998
10
-97.38030000000002
20
62.975099999999998
10
-97.38030000000002
20
68.775099999999995
10
-98.181100000000015
20
68.775099999999995
10
-98.181100000000015
20
71.874200000000002
10
-97.38030000000002
20
71.874200000000002
10
-97.38030000000002
20
72.874700000000004
0
LWPOLYLINE
5
120
100
AcDbEntity
8
0
100
AcDbPolyline
90
20
70
1
43
0.0
10
-48.152999999999999
20
16.164400000000001
10
-47.458999999999982
20
15.763400000000001
10
-49.009999999999991
20
13.079000000000001
10
-49.702999999999975
20
13.4786
10
-52.603999999999999
20
8.4570399999999992
10
-51.908999999999999
20
8.0573700000000024
10
-53.458999999999996
20
5.3716100000000004
10
-54.152999999999977
20
5.7726100000000002
10
-54.652999999999984
20
4.9058299999999999
10
-66.777000000000001
20
11.906300000000002
10
-66.277000000000001
20
12.771600000000001
10
-66.969999999999985
20
13.171300000000002
10
-65.419999999999987
20
15.857100000000003
10
-64.726000000000013
20
15.4575
10
-61.826999999999998
20
20.478999999999999
10
-62.519999999999982
20
20.878700000000002
10
-60.969999999999985
20
23.564500000000002
10
-60.277000000000001
20
23.163499999999999
10
-59.775999999999996
20
24.030200000000001
10
-47.651999999999994
20
17.031199999999998
0
LWPOLYLINE
5
121
100
AcDbEntity
8
0
100
AcDbPolyline
90
20
70
1
43
0.0
10
-64.330999999999989
20
78.924499999999995
10
-64.330999999999989
20
77.925399999999996
10
-78.331699999999984
20
77.925399999999996
10
-78.331699999999984
20
78.924499999999995
10
-79.131099999999989
20
78.924499999999995
10
-79.131099999999989
20
82.025100000000009
10
-78.331699999999984
20
82.025100000000009
10
-78.331699999999984
20
87.825100000000006
10
-79.131099999999989
20
87.825100000000006
10
-79.131099999999989
20
90.924200000000013
10
-78.331699999999984
20
90.924200000000013
10
-78.331699999999984
20
91.924700000000001
10
-64.330999999999989
20
91.924700000000001
10
-64.330999999999989
20
90.924200000000013
10
-63.532000000000004
20
90.924200000000013
10
-63.532000000000004
20
87.825100000000006
10
-64.330999999999989
20
87.825100000000006
10
-64.330999999999989
20
82.025100000000009
10
-63.532000000000004
20
82.025100000000009
10
-63.532000000000004
20
78.924499999999995
0
LWPOLYLINE
5
122
100
AcDbEntity
8
0
100
AcDbPolyline
90
20
70
1
43
0.0
10
-154.53030000000001
20
53.824700000000007
10
-140.53100000000001
20
53.824700000000007
10
-140.53100000000001
20
52.824200000000005
10
-139.73020000000002
20
52.824200000000005
10
-139.73020000000002
20
49.725099999999998
10
-140.53100000000001
20
49.725099999999998
10
-140.53100000000001
20
43.925100000000008
10
-139.73020000000002
20
43.925100000000008
10
-139.73020000000002
20
40.824500000000008
10
-140.53100000000001
20
40.824500000000008
10
-140.53100000000001
20
39.825400000000002
10
-154.53030000000001
20
39.825400000000002
10
-154.53030000000001
20
40.824500000000008
10
-155.33100000000002
20
40.824500000000008
10
-155.33100000000002
20
43.925100000000008
10
-154.53030000000001
20
43.925100000000008
10
-154.53030000000001
20
49.725099999999998
10
-155.33100000000002
20
49.725099999999998
10
-155.33100000000002
20
52.824200000000005
10
-154.53030000000001
20
52.824200000000005
0
LWPOLYLINE
5
123
100
AcDbEntity
8
0
100
AcDbPolyline
90
20
70
1
43
0.0
10
-140.53100000000001
20
58.875400000000006
10
-154.53030000000001
20
58.875400000000006
10
-154.53030000000001
20
59.874499999999998
10
-155.33100000000002
20
59.874499999999998
10
-155.33100000000002
20
62.975099999999998
10
-154.53030000000001
20
62.975099999999998
10
-154.53030000000001
20
68.775099999999995
10
-155.33100000000002
20
68.775099999999995
10
-155.33100000000002
20
71.874200000000002
10
-154.53030000000001
20
71.874200000000002
10
-154.53030000000001
20
72.874700000000004
10
-140.53100000000001
20
72.874700000000004
10
-140.53100000000001
20
71.874200000000002
10
-139.73020000000002
20
71.874200000000002
10
-139.73020000000002
20
68.775099999999995
10
-140.53100000000001
20
68.775099999999995
10
-140.53100000000001
20
62.975099999999998
10
-139.73020000000002
20
62.975099999999998
10
-139.73020000000002
20
59.874499999999998
10
-140.53100000000001
20
59.874499999999998
0
LWPOLYLINE
5
124
100
AcDbEntity
8
0
100
AcDbPolyline
90
20
70
1
43
0.0
10
-121.48099999999999
20
77.925399999999996
10
-135.4803
20
77.925399999999996
10
-135.4803
20
78.924499999999995
10
-136.28109999999998
20
78.924499999999995
10
-136.28109999999998
20
82.025100000000009
10
-135.4803
20
82.025100000000009
10
-135.4803
20
87.825100000000006
10
-136.28109999999998
20
87.825100000000006
10
-136.28109999999998
20
90.924200000000013
10
-135.4803
20
90.924200000000013
10
-135.4803
20
91.924700000000001
10
-121.48099999999999
20
91.924700000000001
10
-121.48099999999999
20
90.924200000000013
10
-120.68020000000001
20
90.924200000000013
10
-120.68020000000001
20
87.825100000000006
10
-121.48099999999999
20
87.825100000000006
10
-121.48099999999999
20
82.025100000000009
10
-120.68020000000001
20
82.025100000000009
10
-120.68020000000001
20
78.924499999999995
10
-121.48099999999999
20
78.924499999999995
0
LWPOLYLINE
5
125
100
AcDbEntity
8
0
100
AcDbPolyline
90
20
70
1
43
0.0
10
-159.58079999999998
20
90.924200000000013
10
-158.78019999999998
20
90.924200000000013
10
-158.78019999999998
20
87.825100000000006
10
-159.58079999999998
20
87.825100000000006
10
-159.58079999999998
20
82.025100000000009
10
-158.78019999999998
20
82.025100000000009
10
-158.78019999999998
20
78.924499999999995
10
-159.58079999999998
20
78.924499999999995
10
-159.58079999999998
20
77.925399999999996
10
-173.58035000000001
20
77.925399999999996
10
-173.58035000000001
20
78.924499999999995
10
-174.38099
20
78.924499999999995
10
-174.38099
20
82.025100000000009
10
-173.58035000000001
20
82.025100000000009
10
-173.58035000000001
20
87.825100000000006
10
-174.38099
20
87.825100000000006
10
-174.38099
20
90.924200000000013
10
-173.58035000000001
20
90.924200000000013
10
-173.58035000000001
20
91.924700000000001
10
-159.58079999999998
20
91.924700000000001
0
LWPOLYLINE
5
126
100
AcDbEntity
8
0
100
AcDbPolyline
90
20
70
1
43
0.0
10
-155.33100000000002
20
78.924499999999995
10
-155.33100000000002
20
82.025100000000009
10
-154.53030000000001
20
82.025100000000009
10
-154.53030000000001
20
87.825100000000006
10
-155.33100000000002
20
87.825100000000006
10
-155.33100000000002
20
90.924200000000013
10
-154.53030000000001
20
90.924200000000013
10
-154.53030000000001
20
91.924700000000001
10
-140.53100000000001
20
91.924700000000001
10
-140.53100000000001
20
90.924200000000013
10
-139.73020000000002
20
90.924200000000013
10
-139.73020000000002
20
87.825100000000006
10
-140.53100000000001
20
87.825100000000006
10
-140.53100000000001
20
82.025100000000009
10
-139.73020000000002
20
82.025100000000009
10
-139.73020000000002
20
78.924499999999995
10
-140.53100000000001
20
78.924499999999995
10
-140.53100000000001
20
77.925399999999996
10
-154.53030000000001
20
77.925399999999996
10
-154.53030000000001
20
78.924499999999995
0
LWPOLYLINE
5
127
100
AcDbEntity
8
0
100
AcDbPolyline
90
20
70
1
43
0.0
10
-135.4803
20
68.775099999999995
10
-136.28109999999998
20
68.775099999999995
10
-136.28109999999998
20
71.874200000000002
10
-135.4803
20
71.874200000000002
10
-135.4803
20
72.874700000000004
10
-121.48099999999999
20
72.874700000000004
10
-121.48099999999999
20
71.874200000000002
10
-120.68020000000001
20
71.874200000000002
10
-120.68020000000001
20
68.775099999999995
10
-121.48099999999999
20
68.775099999999995
10
-121.48099999999999
20
62.975099999999998
10
-120.68020000000001
20
62.975099999999998
10
-120.68020000000001
20
59.874499999999998
10
-121.48099999999999
20
59.874499999999998
10
-121.48099999999999
20
58.875400000000006
10
-135.4803
20
58.875400000000006
10
-135.4803
20
59.874499999999998
10
-136.28109999999998
20
59.874499999999998
10
-136.28109999999998
20
62.975099999999998
10
-135.4803
20
62.975099999999998
0
LWPOLYLINE
5
128
100
AcDbEntity
8
0
100
AcDbPolyline
90
20
70
1
43
0.0
10
-159.58079999999998
20
68.775099999999995
10
-159.58079999999998
20
62.975099999999998
10
-158.78019999999998
20
62.975099999999998
10
-158.78019999999998
20
59.874499999999998
10
-159.58079999999998
20
59.874499999999998
10
-159.58079999999998
20
58.875400000000006
10
-173.58035000000001
20
58.875400000000006
10
-173.58035000000001
20
59.874499999999998
10
-174.38099
20
59.874499999999998
10
-174.38099
20
62.975099999999998
10
-173.58035000000001
20
62.975099999999998
10
-173.58035000000001
20
68.775099999999995
10
-174.38099
20
68.775099999999995
10
-174.38099
20
71.874200000000002
10
-173.58035000000001
20
71.874200000000002
10
-173.58035000000001
20
72.874700000000004
10
-159.58079999999998
20
72.874700000000004
10
-159.58079999999998
20
71.874200000000002
10
-158.78019999999998
20
71.874200000000002
10
-158.78019999999998
20
68.775099999999995
0
LWPOLYLINE
5
129
100
AcDbEntity
8
0
100
AcDbPolyline
90
20
70
1
43
0.0
10
-136.28109999999998
20
49.725099999999998
10
-136.28109999999998
20
52.824200000000005
10
-135.4803
20
52.824200000000005
10
-135.4803
20
53.824700000000007
10
-121.48099999999999
20
53.824700000000007
10
-121.48099999999999
20
52.824200000000005
10
-120.68020000000001
20
52.824200000000005
10
-120.68020000000001
20
49.725099999999998
10
-121.48099999999999
20
49.725099999999998
10
-121.48099999999999
20
43.925100000000008
10
-120.68020000000001
20
43.925100000000008
10
-120.68020000000001
20
40.824500000000008
10
-121.48099999999999
20
40.824500000000008
10
-121.48099999999999
20
39.825400000000002
10
-135.4803
20
39.825400000000002
10
-135.4803
20
40.824500000000008
10
-136.28109999999998
20
40.824500000000008
10
-136.28109999999998
20
43.925100000000008
10
-135.4803
20
43.925100000000008
10
-135.4803
20
49.725099999999998
0
LWPOLYLINE
5
130
100
AcDbEntity
8
0
100
AcDbPolyline
90
20
70
1
43
0.0
10
-116.43029999999999
20
82.025100000000009
10
-116.43029999999999
20
87.825100000000006
10
-117.23110000000003
20
87.825100000000006
10
-117.23110000000003
20
90.924200000000013
10
-116.43029999999999
20
90.924200000000013
10
-116.43029999999999
20
91.924700000000001
10
-102.43100000000001
20
91.924700000000001
10
-102.43100000000001
20
90.924200000000013
10
-101.6302
20
90.924200000000013
10
-101.6302
20
87.825100000000006
10
-102.43100000000001
20
87.825100000000006
10
-102.43100000000001
20
82.025100000000009
10
-101.6302
20
82.025100000000009
10
-101.6302
20
78.924499999999995
10
-102.43100000000001
20
78.924499999999995
10
-102.43100000000001
20
77.925399999999996
10
-116.43029999999999
20
77.925399999999996
10
-116.43029999999999
20
78.924499999999995
10
-117.23110000000003
20
78.924499999999995
10
-117.23110000000003
20
82.025100000000009
0
LWPOLYLINE
5
131
100
AcDbEntity
8
0
100
AcDbPolyline
90
20
70
1
43
0.0
10
-159.58079999999998
20
52.824200000000005
10
-158.78019999999998
20
52.824200000000005
10
-158.78019999999998
20
49.725099999999998
10
-159.58079999999998
20
49.725099999999998
10
-159.58079999999998
20
43.925100000000008
10
-158.78019999999998
20
43.925100000000008
10
-158.78019999999998
20
40.824500000000008
10
-159.58079999999998
20
40.824500000000008
10
-159.58079999999998
20
39.825400000000002
10
-173.58035000000001
20
39.825400000000002
10
-173.58035000000001
20
40.824500000000008
10
-174.38099
20
40.824500000000008
10
-174.38099
20
43.925100000000008
10
-173.58035000000001
20
43.925100000000008
10
-173.58035000000001
20
49.725099999999998
10
-174.38099
20
49.725099999999998
10
-174.38099
20
52.824200000000005
10
-173.58035000000001
20
52.824200000000005
10
-173.58035000000001
20
53.824700000000007
10
-159.58079999999998
20
53.824700000000007
0
LINE
5
132
100
AcDbEntity
8
0
100
AcDbLine
10
-179.38099
20
42.073999999999963
30
0
11
-179.38099
21
132.07399999999998
31
0
0
LINE
5
133
100
AcDbEntity
8
0
100
AcDbLine
10
-4.3809900000000157
20
45.977065570736386
30
0
11
-4.3809900000000201
21
7.0739999999999768
31
0
0
ARC
5
134
100
AcDbEntity
8
0
100
AcDbCircle
10
-169.38099
20
132.07399999999998
30
0
40
10
210
0
220
-0
230
1
100
AcDbArc
50
90
51
180
0
LINE
5
135
100
AcDbEntity
8
0
100
AcDbLine
10
-39.853022740352422
20
132.07399999999996
30
0
11
-39.853022740352415
21
81.630053912112416
31
0
0
LINE
5
136
100
AcDbEntity
8
0
100
AcDbLine
10
-31.192296666462902
20
68.03543710656264
30
0
11
-13.041716073889525
21
59.571682376286134
31
0
0
LINE
5
137
100
AcDbEntity
8
0
100
AcDbLine
10
-39.853022740352429
20
72.073999999999998
30
0
11
-0.91234965127234169
21
72.074000000000012
31
0
0
ARC
5
138
100
AcDbEntity
8
0
100
AcDbCircle
10
-49.853022740352429
20
132.07399999999996
30
0
40
10.000000000000014
210
0
220
-0
230
1
100
AcDbArc
50
0
51
90
0
ARC
5
139
100
AcDbEntity
8
0
100
AcDbCircle
10
-24.853022740352408
20
81.630053912112416
30
0
40
15.000000000000009
210
0
220
0
230
1
100
AcDbArc
50
180
51
245.00000000000003
0
ARC
5
140
100
AcDbEntity
8
0
100
AcDbCircle
10
-19.380990000000011
20
45.977065570736386
30
0
40
14.999999999999996
210
0
220
0
230
1
100
AcDbArc
50
0
51
65.000000000000014
0
LINE
5
141
100
AcDbEntity
8
0
100
AcDbLine
10
-107.23068551788052
20
32.073999999999963
30
0
11
-169.38100000000003
21
32.073999999999963
31
0
0
LINE
5
142
100
AcDbEntity
8
0
100
AcDbLine
10
-83.220288809178129
20
11.795380865697883
30
0
11
-95.740018871095828
21
26.715814145298022
31
0
0
LINE
5
143
100
AcDbEntity
8
0
100
AcDbLine
10
-107.23068551788052
20
32.073999999999963
30
0
11
-107.23068551788047
21
32.073999999999963
31
0
0
LINE
5
144
100
AcDbEntity
8
0
100
AcDbLine
10
-59.209892100475741
20
-2.9260000000000197
30
0
11
-14.380999999999986
21
-2.9260000000000197
31
0
0
LINE
5
145
100
AcDbEntity
8
0
100
AcDbLine
10
-169.38100000000003
20
32.073999999999963
30
0
11
-169.38099000000005
21
32.073999999999941
31
0
0
ARC
5
146
100
AcDbEntity
8
0
100
AcDbCircle
10
-107.23068551788047
20
17.074000000000069
30
0
40
14.999999999999895
210
0
220
-0
230
1
100
AcDbArc
50
39.999999999999908
51
90
0
ARC
5
147
100
AcDbEntity
8
0
100
AcDbCircle
10
-59.209892100475862
20
22.073999999999824
30
0
40
24.999999999999844
210
0
220
0
230
1
100
AcDbArc
50
219.99999999999983
51
270.00000000000017
0
ARC
5
148
100
AcDbEntity
8
0
100
AcDbCircle
10
-169.38098999999997
20
42.073999999999984
30
0
40
10.000000000000036
210
0
220
0
230
1
100
AcDbArc
50
180
51
269.99999999999949
0
LINE
5
149
100
AcDbEntity
8
0
100
AcDbLine
10
-14.380999999999986
20
-2.9260000000000197
30
0
11
-14.380990000000015
21
-2.9260000000000197
31
0
0
ARC
5
150
100
AcDbEntity
8
0
100
AcDbCircle
10
-14.380990000000011
20
7.0739999999999714
30
0
40
9.9999999999999911
210
0
220
0
230
1
100
AcDbArc
50
-90
51
0
0
LINE
5
151
100
AcDbEntity
8
0
100
AcDbLine
10
-59.209892100475741
20
-2.9260000000000197
30
0
11
-14.380999999999986
21
-2.9260000000000197
31
0
0
LINE
5
152
100
AcDbEntity
8
0
100
AcDbLine
10
-78.361003178450233
20
6.0043097578364923
30
0
11
-95.740018871095828
21
26.715814145298022
31
0
0
LINE
5
153
100
AcDbEntity
8
0
100
AcDbLine
10
-107.23068551788047
20
32.073999999999963
30
0
11
-169.38100000000003
21
32.073999999999963
31
0
0
ENDSEC
0
SECTION
2
OBJECTS
0
DICTIONARY
5
C
100
AcDbDictionary
3
ACAD_GROUP
350
D
3
ACAD_MLINESTYLE
350
17
0
DICTIONARY
5
D
100
AcDbDictionary
0
DICTIONARY
5
1A
330
C
100
AcDbDictionary
0
DICTIONARY
5
17
100
AcDbDictionary
0
ENDSEC
0
EOF
