0
SECTION
2
HEADER
9
$INSUNITS
70
4
9
$ACADVER
1
AC1014
9
$HANDSEED
5
FFFF
0
ENDSEC
0
SECTION
2
TABLES
0
TABLE
2
VPORT
5
8
100
AcDbSymbolTable
0
ENDTAB
0
TABLE
2
LTYPE
5
5
100
AcDbSymbolTable
0
LTYPE
5
14
100
AcDbSymbolTableRecord
100
AcDbLinetypeTableRecord
2
BYBLOCK
70
0
0
LTYPE
5
15
100
AcDbSymbolTableRecord
100
AcDbLinetypeTableRecord
2
BYLAYER
70
0
0
ENDTAB
0
TABLE
2
LAYER
5
2
100
AcDbSymbolTable
70
2
0
LAYER
5
50
100
AcDbSymbolTableRecord
100
AcDbLayerTableRecord
2
0
70
0
6
CONTINUOUS
0
ENDTAB
0
TABLE
2
STYLE
5
3
100
AcDbSymbolTable
70
1
0
STYLE
5
11
100
AcDbSymbolTableRecord
100
AcDbTextStyleTableRecord
2
STANDARD
70
0
0
ENDTAB
0
TABLE
2
VIEW
5
6
100
AcDbSymbolTable
70
0
0
ENDTAB
0
TABLE
2
UCS
5
7
100
AcDbSymbolTable
70
0
0
ENDTAB
0
TABLE
2
APPID
5
9
100
AcDbSymbolTable
70
2
0
APPID
5
12
100
AcDbSymbolTableRecord
100
AcDbRegAppTableRecord
2
ACAD
70
0
0
ENDTAB
0
TABLE
2
DIMSTYLE
5
A
100
AcDbSymbolTable
70
1
0
ENDTAB
0
TABLE
2
BLOCK_RECORD
5
1
100
AcDbSymbolTable
70
1
0
BLOCK_RECORD
5
1F
100
AcDbSymbolTableRecord
100
AcDbBlockTableRecord
2
*MODEL_SPACE
0
BLOCK_RECORD
5
1B
100
AcDbSymbolTableRecord
100
AcDbBlockTableRecord
2
*PAPER_SPACE
0
ENDTAB
0
ENDSEC
0
SECTION
2
BLOCKS
0
BLOCK
5
20
100
AcDbEntity
100
AcDbBlockBegin
2
*MODEL_SPACE
0
ENDBLK
5
21
100
AcDbEntity
100
AcDbBlockEnd
0
BLOCK
5
1C
100
AcDbEntity
100
AcDbBlockBegin
2
*PAPER_SPACE
0
ENDBLK
5
1D
100
AcDbEntity
100
AcDbBlockEnd
0
ENDSEC
0
SECTION
2
ENTITIES
0
LWPOLYLINE
5
100
100
AcDbEntity
8
0
100
AcDbPolyline
90
48
70
1
43
0.0
10
56.825999999999979
20
34.9636
10
55.964999999999996
20
36.457500000000003
10
55.115999999999985
20
35.968200000000003
10
53.464999999999996
20
38.825000000000003
10
54.314000000000007
20
39.315300000000008
10
53.450999999999993
20
40.809300000000007
10
58.880999999999986
20
43.944099999999999
10
58.469000000000023
20
44.659599999999998
10
60.89400000000002
20
46.059699999999999
10
61.305999999999983
20
45.344299999999997
10
64.105000000000032
20
46.959299999999999
10
64.966000000000022
20
45.465600000000002
10
65.763000000000005
20
45.924599999999998
10
67.41400000000003
20
43.067799999999998
10
66.615999999999971
20
42.607399999999998
10
67.480000000000018
20
41.113799999999998
10
67.842206721824553
20
40.486292740698708
10
68.249000000000038
20
40.721100000000007
10
68.649000000000029
20
40.027900000000002
10
69.514000000000038
20
40.528199999999998
10
76.514000000000038
20
28.404100000000003
10
75.649000000000029
20
27.903900000000004
10
76.048000000000016
20
27.210700000000003
10
75.641418239889788
20
26.975870251668077
10
76.004000000000019
20
26.348099999999999
10
76.866
20
24.854300000000002
10
77.663000000000025
20
25.314599999999999
10
79.313000000000017
20
22.456499999999998
10
78.515999999999991
20
21.996300000000005
10
79.379000000000033
20
20.502500000000001
10
76.582000000000022
20
18.8874
10
76.994000000000014
20
18.1736
10
74.570000000000022
20
16.774899999999999
10
74.157000000000025
20
17.487300000000001
10
68.727000000000032
20
14.3523
10
67.864000000000047
20
15.8461
10
67.016000000000005
20
15.355499999999999
10
65.365999999999971
20
18.2149
10
66.215000000000018
20
18.7041
10
65.351000000000013
20
20.197900000000001
10
66.019084520138236
20
20.583566972988887
10
65.657000000000011
20
21.210799999999999
10
65.257000000000019
20
21.903900000000004
10
64.390000000000015
20
21.403700000000004
10
57.390000000000015
20
33.527700000000003
10
58.257000000000019
20
34.027900000000002
10
57.857000000000028
20
34.7211
10
57.494323042586899
20
35.349387405084194
0
LWPOLYLINE
5
101
100
AcDbEntity
8
0
100
AcDbPolyline
90
20
70
1
43
0.0
10
46.156000000000013
20
14.888300000000001
10
45.656000000000006
20
15.7538
10
57.779999999999994
20
22.754200000000001
10
58.280000000000001
20
21.8874
10
58.972000000000023
20
22.288399999999999
10
60.522000000000034
20
19.602599999999999
10
59.82900000000005
20
19.203000000000003
10
62.730000000000004
20
14.180000000000001
10
63.422999999999988
20
14.579599999999999
10
64.972000000000008
20
11.896599999999999
10
64.280000000000015
20
11.4956
10
64.779000000000025
20
10.6302
10
52.655000000000001
20
3.6297699999999997
10
52.155999999999992
20
4.4965400000000004
10
51.463000000000008
20
4.0955399999999997
10
49.912999999999997
20
6.7799699999999996
10
50.60599999999998
20
7.1795900000000001
10
47.705000000000027
20
12.202500000000001
10
47.012000000000043
20
11.802900000000001
10
45.462999999999994
20
14.487300000000001
0
LWPOLYLINE
5
102
100
AcDbEntity
8
0
100
AcDbPolyline
90
20
70
1
43
0.0
10
54.75500000000001
20
27.993500000000004
10
55.254000000000019
20
27.1267
10
43.130000000000031
20
20.127600000000001
10
42.630999999999986
20
20.994399999999999
10
41.938000000000002
20
20.593400000000003
10
40.387999999999991
20
23.277800000000003
10
41.080999999999975
20
23.677500000000002
10
38.180000000000021
20
28.700399999999998
10
37.487000000000037
20
28.300800000000002
10
35.938000000000024
20
30.986600000000003
10
36.631000000000007
20
31.386199999999999
10
36.131
20
32.25160000000001
10
48.255000000000024
20
39.252200000000002
10
48.755000000000031
20
38.386800000000001
10
49.447000000000017
20
38.786200000000001
10
50.997000000000028
20
36.100499999999997
10
50.304000000000045
20
35.700800000000001
10
53.204999999999998
20
30.677900000000005
10
53.897999999999982
20
31.077500000000001
10
55.447000000000031
20
28.394500000000001
0
LWPOLYLINE
5
103
100
AcDbEntity
8
0
100
AcDbPolyline
90
20
70
1
43
0.0
10
63.744000000000021
20
62.975099999999998
10
64.543000000000006
20
62.975099999999998
10
64.543000000000006
20
68.775099999999995
10
63.744000000000021
20
68.775099999999995
10
63.744000000000021
20
71.874200000000002
10
64.543000000000006
20
71.874200000000002
10
64.543000000000006
20
72.874700000000004
10
78.544000000000025
20
72.874700000000004
10
78.544000000000025
20
71.874200000000002
10
79.345000000000013
20
71.874200000000002
10
79.345000000000013
20
68.775099999999995
10
78.544000000000025
20
68.775099999999995
10
78.544000000000025
20
62.975099999999998
10
79.345000000000013
20
62.975099999999998
10
79.345000000000013
20
59.874499999999998
10
78.544000000000025
20
59.874499999999998
10
78.544000000000025
20
58.875400000000006
10
64.543000000000006
20
58.875400000000006
10
64.543000000000006
20
59.874499999999998
10
63.744000000000021
20
59.874499999999998
0
LWPOLYLINE
5
104
100
AcDbEntity
8
0
100
AcDbPolyline
90
20
70
1
43
0.0
10
64.543000000000006
20
91.924700000000001
10
78.544000000000025
20
91.924700000000001
10
78.544000000000025
20
90.924200000000013
10
79.345000000000013
20
90.924200000000013
10
79.345000000000013
20
87.825100000000006
10
78.544000000000025
20
87.825100000000006
10
78.544000000000025
20
82.025100000000009
10
79.345000000000013
20
82.025100000000009
10
79.345000000000013
20
78.924499999999995
10
78.544000000000025
20
78.924499999999995
10
78.544000000000025
20
77.925399999999996
10
64.543000000000006
20
77.925399999999996
10
64.543000000000006
20
78.924499999999995
10
63.744000000000021
20
78.924499999999995
10
63.744000000000021
20
82.025100000000009
10
64.543000000000006
20
82.025100000000009
10
64.543000000000006
20
87.825100000000006
10
63.744000000000021
20
87.825100000000006
10
63.744000000000021
20
90.924200000000013
10
64.543000000000006
20
90.924200000000013
0
LWPOLYLINE
5
105
100
AcDbEntity
8
0
100
AcDbPolyline
90
20
70
1
43
0.0
10
78.544000000000025
20
106.875
10
78.544000000000025
20
101.07500000000002
10
79.345000000000013
20
101.07500000000002
10
79.345000000000013
20
97.974500000000006
10
78.544000000000025
20
97.974500000000006
10
78.544000000000025
20
96.975400000000008
10
64.543000000000006
20
96.975400000000008
10
64.543000000000006
20
97.974500000000006
10
63.744000000000021
20
97.974500000000006
10
63.744000000000021
20
101.07500000000002
10
64.543000000000006
20
101.07500000000002
10
64.543000000000006
20
106.875
10
63.744000000000021
20
106.875
10
63.744000000000021
20
109.97399999999999
10
64.543000000000006
20
109.97399999999999
10
64.543000000000006
20
110.97499999999999
10
78.544000000000025
20
110.97499999999999
10
78.544000000000025
20
109.97399999999999
10
79.345000000000013
20
109.97399999999999
10
79.345000000000013
20
106.875
0
LWPOLYLINE
5
106
100
AcDbEntity
8
0
100
AcDbPolyline
90
20
70
1
43
0.0
10
83.594999999999999
20
77.925399999999996
10
83.594999999999999
20
78.924499999999995
10
82.794000000000025
20
78.924499999999995
10
82.794000000000025
20
82.025100000000009
10
83.594999999999999
20
82.025100000000009
10
83.594999999999999
20
87.825100000000006
10
82.794000000000025
20
87.825100000000006
10
82.794000000000025
20
90.924200000000013
10
83.594999999999999
20
90.924200000000013
10
83.594999999999999
20
91.924700000000001
10
97.594000000000023
20
91.924700000000001
10
97.594000000000023
20
90.924200000000013
10
98.395000000000039
20
90.924200000000013
10
98.395000000000039
20
87.825100000000006
10
97.594000000000023
20
87.825100000000006
10
97.594000000000023
20
82.025100000000009
10
98.395000000000039
20
82.025100000000009
10
98.395000000000039
20
78.924499999999995
10
97.594000000000023
20
78.924499999999995
10
97.594000000000023
20
77.925399999999996
0
LWPOLYLINE
5
107
100
AcDbEntity
8
0
100
AcDbPolyline
90
20
70
1
43
0.0
10
121.69499999999999
20
101.07500000000002
10
121.69499999999999
20
106.875
10
120.89400000000001
20
106.875
10
120.89400000000001
20
109.97399999999999
10
121.69499999999999
20
109.97399999999999
10
121.69499999999999
20
110.97499999999999
10
135.69400000000002
20
110.97499999999999
10
135.69400000000002
20
109.97399999999999
10
136.495
20
109.97399999999999
10
136.495
20
106.875
10
135.69400000000002
20
106.875
10
135.69400000000002
20
101.07500000000002
10
136.495
20
101.07500000000002
10
136.495
20
97.974500000000006
10
135.69400000000002
20
97.974500000000006
10
135.69400000000002
20
96.975400000000008
10
121.69499999999999
20
96.975400000000008
10
121.69499999999999
20
97.974500000000006
10
120.89400000000001
20
97.974500000000006
10
120.89400000000001
20
101.07500000000002
0
LWPOLYLINE
5
108
100
AcDbEntity
8
0
100
AcDbPolyline
90
20
70
1
43
0.0
10
83.594999999999999
20
96.975400000000008
10
83.594999999999999
20
97.974500000000006
10
82.794000000000025
20
97.974500000000006
10
82.794000000000025
20
101.07500000000002
10
83.594999999999999
20
101.07500000000002
10
83.594999999999999
20
106.875
10
82.794000000000025
20
106.875
10
82.794000000000025
20
109.97399999999999
10
83.594999999999999
20
109.97399999999999
10
83.594999999999999
20
110.97499999999999
10
97.594000000000023
20
110.97499999999999
10
97.594000000000023
20
109.97399999999999
10
98.395000000000039
20
109.97399999999999
10
98.395000000000039
20
106.875
10
97.594000000000023
20
106.875
10
97.594000000000023
20
101.07500000000002
10
98.395000000000039
20
101.07500000000002
10
98.395000000000039
20
97.974500000000006
10
97.594000000000023
20
97.974500000000006
10
97.594000000000023
20
96.975400000000008
0
LWPOLYLINE
5
109
100
AcDbEntity
8
0
100
AcDbPolyline
90
20
70
1
43
0.0
10
79.345000000000013
20
120.12500000000001
10
79.345000000000013
20
117.02500000000001
10
78.544000000000025
20
117.02500000000001
10
78.544000000000025
20
116.02500000000001
10
64.543000000000006
20
116.02500000000001
10
64.543000000000006
20
117.02500000000001
10
63.744000000000021
20
117.02500000000001
10
63.744000000000021
20
120.12500000000001
10
64.543000000000006
20
120.12500000000001
10
64.543000000000006
20
125.92500000000001
10
63.744000000000021
20
125.92500000000001
10
63.744000000000021
20
129.024
10
64.543000000000006
20
129.024
10
64.543000000000006
20
130.02500000000001
10
78.544000000000025
20
130.02500000000001
10
78.544000000000025
20
129.024
10
79.345000000000013
20
129.024
10
79.345000000000013
20
125.92500000000001
10
78.544000000000025
20
125.92500000000001
10
78.544000000000025
20
120.12500000000001
0
LWPOLYLINE
5
110
100
AcDbEntity
8
0
100
AcDbPolyline
90
20
70
1
43
0.0
10
140.745
20
101.07500000000002
10
140.745
20
106.875
10
139.94400000000002
20
106.875
10
139.94400000000002
20
109.97399999999999
10
140.745
20
109.97399999999999
10
140.745
20
110.97499999999999
10
154.744
20
110.97499999999999
10
154.744
20
109.97399999999999
10
155.54500000000002
20
109.97399999999999
10
155.54500000000002
20
106.875
10
154.744
20
106.875
10
154.744
20
101.07500000000002
10
155.54500000000002
20
101.07500000000002
10
155.54500000000002
20
97.974500000000006
10
154.744
20
97.974500000000006
10
154.744
20
96.975400000000008
10
140.745
20
96.975400000000008
10
140.745
20
97.974500000000006
10
139.94400000000002
20
97.974500000000006
10
139.94400000000002
20
101.07500000000002
0
LWPOLYLINE
5
111
100
AcDbEntity
8
0
100
AcDbPolyline
90
20
70
1
43
0.0
10
173.79400000000001
20
106.875
10
173.79400000000001
20
101.07500000000002
10
174.59500000000003
20
101.07500000000002
10
174.59500000000003
20
97.974500000000006
10
173.79400000000001
20
97.974500000000006
10
173.79400000000001
20
96.975400000000008
10
159.79499999999999
20
96.975400000000008
10
159.79499999999999
20
97.974500000000006
10
158.99400000000003
20
97.974500000000006
10
158.99400000000003
20
101.07500000000002
10
159.79499999999999
20
101.07500000000002
10
159.79499999999999
20
106.875
10
158.99400000000003
20
106.875
10
158.99400000000003
20
109.97399999999999
10
159.79499999999999
20
109.97399999999999
10
159.79499999999999
20
110.97499999999999
10
173.79400000000001
20
110.97499999999999
10
173.79400000000001
20
109.97399999999999
10
174.59500000000003
20
109.97399999999999
10
174.59500000000003
20
106.875
0
LWPOLYLINE
5
112
100
AcDbEntity
8
0
100
AcDbPolyline
90
20
70
1
43
0.0
10
98.395000000000039
20
68.775099999999995
10
97.594000000000023
20
68.775099999999995
10
97.594000000000023
20
62.975099999999998
10
98.395000000000039
20
62.975099999999998
10
98.395000000000039
20
59.874499999999998
10
97.594000000000023
20
59.874499999999998
10
97.594000000000023
20
58.875400000000006
10
83.594999999999999
20
58.875400000000006
10
83.594999999999999
20
59.874499999999998
10
82.794000000000025
20
59.874499999999998
10
82.794000000000025
20
62.975099999999998
10
83.594999999999999
20
62.975099999999998
10
83.594999999999999
20
68.775099999999995
10
82.794000000000025
20
68.775099999999995
10
82.794000000000025
20
71.874200000000002
10
83.594999999999999
20
71.874200000000002
10
83.594999999999999
20
72.874700000000004
10
97.594000000000023
20
72.874700000000004
10
97.594000000000023
20
71.874200000000002
10
98.395000000000039
20
71.874200000000002
0
LWPOLYLINE
5
113
100
AcDbEntity
8
0
100
AcDbPolyline
90
20
70
1
43
0.0
10
102.64500000000001
20
101.07500000000002
10
102.64500000000001
20
106.875
10
101.84400000000004
20
106.875
10
101.84400000000004
20
109.97399999999999
10
102.64500000000001
20
109.97399999999999
10
102.64500000000001
20
110.97499999999999
10
116.64400000000001
20
110.97499999999999
10
116.64400000000001
20
109.97399999999999
10
117.44499999999999
20
109.97399999999999
10
117.44499999999999
20
106.875
10
116.64400000000001
20
106.875
10
116.64400000000001
20
101.07500000000002
10
117.44499999999999
20
101.07500000000002
10
117.44499999999999
20
97.974500000000006
10
116.64400000000001
20
97.974500000000006
10
116.64400000000001
20
96.975400000000008
10
102.64500000000001
20
96.975400000000008
10
102.64500000000001
20
97.974500000000006
10
101.84400000000004
20
97.974500000000006
10
101.84400000000004
20
101.07500000000002
0
LWPOLYLINE
5
114
100
AcDbEntity
8
0
100
AcDbPolyline
90
20
70
1
43
0.0
10
173.79400000000001
20
39.825400000000002
10
159.79499999999999
20
39.825400000000002
10
159.79499999999999
20
40.824500000000008
10
158.99400000000003
20
40.824500000000008
10
158.99400000000003
20
43.925100000000008
10
159.79499999999999
20
43.925100000000008
10
159.79499999999999
20
49.725099999999998
10
158.99400000000003
20
49.725099999999998
10
158.99400000000003
20
52.824200000000005
10
159.79499999999999
20
52.824200000000005
10
159.79499999999999
20
53.824700000000007
10
173.79400000000001
20
53.824700000000007
10
173.79400000000001
20
52.824200000000005
10
174.59500000000003
20
52.824200000000005
10
174.59500000000003
20
49.725099999999998
10
173.79400000000001
20
49.725099999999998
10
173.79400000000001
20
43.925100000000008
10
174.59500000000003
20
43.925100000000008
10
174.59500000000003
20
40.824500000000008
10
173.79400000000001
20
40.824500000000008
0
LWPOLYLINE
5
115
100
AcDbEntity
8
0
100
AcDbPolyline
90
20
70
1
43
0.0
10
159.79499999999999
20
72.874700000000004
10
173.79400000000001
20
72.874700000000004
10
173.79400000000001
20
71.874200000000002
10
174.59500000000003
20
71.874200000000002
10
174.59500000000003
20
68.775099999999995
10
173.79400000000001
20
68.775099999999995
10
173.79400000000001
20
62.975099999999998
10
174.59500000000003
20
62.975099999999998
10
174.59500000000003
20
59.874499999999998
10
173.79400000000001
20
59.874499999999998
10
173.79400000000001
20
58.875400000000006
10
159.79499999999999
20
58.875400000000006
10
159.79499999999999
20
59.874499999999998
10
158.99400000000003
20
59.874499999999998
10
158.99400000000003
20
62.975099999999998
10
159.79499999999999
20
62.975099999999998
10
159.79499999999999
20
68.775099999999995
10
158.99400000000003
20
68.775099999999995
10
158.99400000000003
20
71.874200000000002
10
159.79499999999999
20
71.874200000000002
0
LWPOLYLINE
5
116
100
AcDbEntity
8
0
100
AcDbPolyline
90
20
70
1
43
0.0
10
135.69400000000002
20
53.824700000000007
10
135.69400000000002
20
52.824200000000005
10
136.495
20
52.824200000000005
10
136.495
20
49.725099999999998
10
135.69400000000002
20
49.725099999999998
10
135.69400000000002
20
43.925100000000008
10
136.495
20
43.925100000000008
10
136.495
20
40.824500000000008
10
135.69400000000002
20
40.824500000000008
10
135.69400000000002
20
39.825400000000002
10
121.69499999999999
20
39.825400000000002
10
121.69499999999999
20
40.824500000000008
10
120.89400000000001
20
40.824500000000008
10
120.89400000000001
20
43.925100000000008
10
121.69499999999999
20
43.925100000000008
10
121.69499999999999
20
49.725099999999998
10
120.89400000000001
20
49.725099999999998
10
120.89400000000001
20
52.824200000000005
10
121.69499999999999
20
52.824200000000005
10
121.69499999999999
20
53.824700000000007
0
LWPOLYLINE
5
117
100
AcDbEntity
8
0
100
AcDbPolyline
90
20
70
1
43
0.0
10
117.44499999999999
20
43.925100000000008
10
117.44499999999999
20
40.824500000000008
10
116.64400000000001
20
40.824500000000008
10
116.64400000000001
20
39.825400000000002
10
102.64500000000001
20
39.825400000000002
10
102.64500000000001
20
40.824500000000008
10
101.84400000000004
20
40.824500000000008
10
101.84400000000004
20
43.925100000000008
10
102.64500000000001
20
43.925100000000008
10
102.64500000000001
20
49.725099999999998
10
101.84400000000004
20
49.725099999999998
10
101.84400000000004
20
52.824200000000005
10
102.64500000000001
20
52.824200000000005
10
102.64500000000001
20
53.824700000000007
10
116.64400000000001
20
53.824700000000007
10
116.64400000000001
20
52.824200000000005
10
117.44499999999999
20
52.824200000000005
10
117.44499999999999
20
49.725099999999998
10
116.64400000000001
20
49.725099999999998
10
116.64400000000001
20
43.925100000000008
0
LWPOLYLINE
5
118
100
AcDbEntity
8
0
100
AcDbPolyline
90
20
70
1
43
0.0
10
140.745
20
58.875400000000006
10
140.745
20
59.874499999999998
10
139.94400000000002
20
59.874499999999998
10
139.94400000000002
20
62.975099999999998
10
140.745
20
62.975099999999998
10
140.745
20
68.775099999999995
10
139.94400000000002
20
68.775099999999995
10
139.94400000000002
20
71.874200000000002
10
140.745
20
71.874200000000002
10
140.745
20
72.874700000000004
10
154.744
20
72.874700000000004
10
154.744
20
71.874200000000002
10
155.54500000000002
20
71.874200000000002
10
155.54500000000002
20
68.775099999999995
10
154.744
20
68.775099999999995
10
154.744
20
62.975099999999998
10
155.54500000000002
20
62.975099999999998
10
155.54500000000002
20
59.874499999999998
10
154.744
20
59.874499999999998
10
154.744
20
58.875400000000006
0
LWPOLYLINE
5
119
100
AcDbEntity
8
0
100
AcDbPolyline
90
20
70
1
43
0.0
10
140.745
20
40.824500000000008
10
139.94400000000002
20
40.824500000000008
10
139.94400000000002
20
43.925100000000008
10
140.745
20
43.925100000000008
10
140.745
20
49.725099999999998
10
139.94400000000002
20
49.725099999999998
10
139.94400000000002
20
52.824200000000005
10
140.745
20
52.824200000000005
10
140.745
20
53.824700000000007
10
154.744
20
53.824700000000007
10
154.744
20
52.824200000000005
10
155.54500000000002
20
52.824200000000005
10
155.54500000000002
20
49.725099999999998
10
154.744
20
49.725099999999998
10
154.744
20
43.925100000000008
10
155.54500000000002
20
43.925100000000008
10
155.54500000000002
20
40.824500000000008
10
154.744
20
40.824500000000008
10
154.744
20
39.825400000000002
10
140.745
20
39.825400000000002
0
LWPOLYLINE
5
120
100
AcDbEntity
8
0
100
AcDbPolyline
90
20
70
1
43
0.0
10
117.44499999999999
20
71.874200000000002
10
117.44499999999999
20
68.775099999999995
10
116.64400000000001
20
68.775099999999995
10
116.64400000000001
20
62.975099999999998
10
117.44499999999999
20
62.975099999999998
10
117.44499999999999
20
59.874499999999998
10
116.64400000000001
20
59.874499999999998
10
116.64400000000001
20
58.875400000000006
10
102.64500000000001
20
58.875400000000006
10
102.64500000000001
20
59.874499999999998
10
101.84400000000004
20
59.874499999999998
10
101.84400000000004
20
62.975099999999998
10
102.64500000000001
20
62.975099999999998
10
102.64500000000001
20
68.775099999999995
10
101.84400000000004
20
68.775099999999995
10
101.84400000000004
20
71.874200000000002
10
102.64500000000001
20
71.874200000000002
10
102.64500000000001
20
72.874700000000004
10
116.64400000000001
20
72.874700000000004
10
116.64400000000001
20
71.874200000000002
0
LWPOLYLINE
5
121
100
AcDbEntity
8
0
100
AcDbPolyline
90
20
70
1
43
0.0
10
135.69400000000002
20
72.874700000000004
10
135.69400000000002
20
71.874200000000002
10
136.495
20
71.874200000000002
10
136.495
20
68.775099999999995
10
135.69400000000002
20
68.775099999999995
10
135.69400000000002
20
62.975099999999998
10
136.495
20
62.975099999999998
10
136.495
20
59.874499999999998
10
135.69400000000002
20
59.874499999999998
10
135.69400000000002
20
58.875400000000006
10
121.69499999999999
20
58.875400000000006
10
121.69499999999999
20
59.874499999999998
10
120.89400000000001
20
59.874499999999998
10
120.89400000000001
20
62.975099999999998
10
121.69499999999999
20
62.975099999999998
10
121.69499999999999
20
68.775099999999995
10
120.89400000000001
20
68.775099999999995
10
120.89400000000001
20
71.874200000000002
10
121.69499999999999
20
71.874200000000002
10
121.69499999999999
20
72.874700000000004
0
LWPOLYLINE
5
122
100
AcDbEntity
8
0
100
AcDbPolyline
90
20
70
1
43
0.0
10
117.44499999999999
20
78.924499999999995
10
116.64400000000001
20
78.924499999999995
10
116.64400000000001
20
77.925399999999996
10
102.64500000000001
20
77.925399999999996
10
102.64500000000001
20
78.924499999999995
10
101.84400000000004
20
78.924499999999995
10
101.84400000000004
20
82.025100000000009
10
102.64500000000001
20
82.025100000000009
10
102.64500000000001
20
87.825100000000006
10
101.84400000000004
20
87.825100000000006
10
101.84400000000004
20
90.924200000000013
10
102.64500000000001
20
90.924200000000013
10
102.64500000000001
20
91.924700000000001
10
116.64400000000001
20
91.924700000000001
10
116.64400000000001
20
90.924200000000013
10
117.44499999999999
20
90.924200000000013
10
117.44499999999999
20
87.825100000000006
10
116.64400000000001
20
87.825100000000006
10
116.64400000000001
20
82.025100000000009
10
117.44499999999999
20
82.025100000000009
0
LWPOLYLINE
5
123
100
AcDbEntity
8
0
100
AcDbPolyline
90
20
70
1
43
0.0
10
120.89400000000001
20
82.025100000000009
10
121.69499999999999
20
82.025100000000009
10
121.69499999999999
20
87.825100000000006
10
120.89400000000001
20
87.825100000000006
10
120.89400000000001
20
90.924200000000013
10
121.69499999999999
20
90.924200000000013
10
121.69499999999999
20
91.924700000000001
10
135.69400000000002
20
91.924700000000001
10
135.69400000000002
20
90.924200000000013
10
136.495
20
90.924200000000013
10
136.495
20
87.825100000000006
10
135.69400000000002
20
87.825100000000006
10
135.69400000000002
20
82.025100000000009
10
136.495
20
82.025100000000009
10
136.495
20
78.924499999999995
10
135.69400000000002
20
78.924499999999995
10
135.69400000000002
20
77.925399999999996
10
121.69499999999999
20
77.925399999999996
10
121.69499999999999
20
78.924499999999995
10
120.89400000000001
20
78.924499999999995
0
LWPOLYLINE
5
124
100
AcDbEntity
8
0
100
AcDbPolyline
90
20
70
1
43
0.0
10
97.594000000000023
20
116.02500000000001
10
83.594999999999999
20
116.02500000000001
10
83.594999999999999
20
117.02500000000001
10
82.794000000000025
20
117.02500000000001
10
82.794000000000025
20
120.12500000000001
10
83.594999999999999
20
120.12500000000001
10
83.594999999999999
20
125.92500000000001
10
82.794000000000025
20
125.92500000000001
10
82.794000000000025
20
129.024
10
83.594999999999999
20
129.024
10
83.594999999999999
20
130.02500000000001
10
97.594000000000023
20
130.02500000000001
10
97.594000000000023
20
129.024
10
98.395000000000039
20
129.024
10
98.395000000000039
20
125.92500000000001
10
97.594000000000023
20
125.92500000000001
10
97.594000000000023
20
120.12500000000001
10
98.395000000000039
20
120.12500000000001
10
98.395000000000039
20
117.02500000000001
10
97.594000000000023
20
117.02500000000001
0
LWPOLYLINE
5
125
100
AcDbEntity
8
0
100
AcDbPolyline
90
20
70
1
43
0.0
10
159.79499999999999
20
91.924700000000001
10
173.79400000000001
20
91.924700000000001
10
173.79400000000001
20
90.924200000000013
10
174.59500000000003
20
90.924200000000013
10
174.59500000000003
20
87.825100000000006
10
173.79400000000001
20
87.825100000000006
10
173.79400000000001
20
82.025100000000009
10
174.59500000000003
20
82.025100000000009
10
174.59500000000003
20
78.924499999999995
10
173.79400000000001
20
78.924499999999995
10
173.79400000000001
20
77.925399999999996
10
159.79499999999999
20
77.925399999999996
10
159.79499999999999
20
78.924499999999995
10
158.99400000000003
20
78.924499999999995
10
158.99400000000003
20
82.025100000000009
10
159.79499999999999
20
82.025100000000009
10
159.79499999999999
20
87.825100000000006
10
158.99400000000003
20
87.825100000000006
10
158.99400000000003
20
90.924200000000013
10
159.79499999999999
20
90.924200000000013
0
LWPOLYLINE
5
126
100
AcDbEntity
8
0
100
AcDbPolyline
90
20
70
1
43
0.0
10
102.64500000000001
20
129.024
10
102.64500000000001
20
130.02500000000001
10
116.64400000000001
20
130.02500000000001
10
116.64400000000001
20
129.024
10
117.44499999999999
20
129.024
10
117.44499999999999
20
125.92500000000001
10
116.64400000000001
20
125.92500000000001
10
116.64400000000001
20
120.12500000000001
10
117.44499999999999
20
120.12500000000001
10
117.44499999999999
20
117.02500000000001
10
116.64400000000001
20
117.02500000000001
10
116.64400000000001
20
116.02500000000001
10
102.64500000000001
20
116.02500000000001
10
102.64500000000001
20
117.02500000000001
10
101.84400000000004
20
117.02500000000001
10
101.84400000000004
20
120.12500000000001
10
102.64500000000001
20
120.12500000000001
10
102.64500000000001
20
125.92500000000001
10
101.84400000000004
20
125.92500000000001
10
101.84400000000004
20
129.024
0
LWPOLYLINE
5
127
100
AcDbEntity
8
0
100
AcDbPolyline
90
20
70
1
43
0.0
10
158.99400000000003
20
129.024
10
159.79499999999999
20
129.024
10
159.79499999999999
20
130.02500000000001
10
173.79400000000001
20
130.02500000000001
10
173.79400000000001
20
129.024
10
174.59500000000003
20
129.024
10
174.59500000000003
20
125.92500000000001
10
173.79400000000001
20
125.92500000000001
10
173.79400000000001
20
120.12500000000001
10
174.59500000000003
20
120.12500000000001
10
174.59500000000003
20
117.02500000000001
10
173.79400000000001
20
117.02500000000001
10
173.79400000000001
20
116.02500000000001
10
159.79499999999999
20
116.02500000000001
10
159.79499999999999
20
117.02500000000001
10
158.99400000000003
20
117.02500000000001
10
158.99400000000003
20
120.12500000000001
10
159.79499999999999
20
120.12500000000001
10
159.79499999999999
20
125.92500000000001
10
158.99400000000003
20
125.92500000000001
0
LWPOLYLINE
5
128
100
AcDbEntity
8
0
100
AcDbPolyline
90
20
70
1
43
0.0
10
154.744
20
125.92500000000001
10
154.744
20
120.12500000000001
10
155.54500000000002
20
120.12500000000001
10
155.54500000000002
20
117.02500000000001
10
154.744
20
117.02500000000001
10
154.744
20
116.02500000000001
10
140.745
20
116.02500000000001
10
140.745
20
117.02500000000001
10
139.94400000000002
20
117.02500000000001
10
139.94400000000002
20
120.12500000000001
10
140.745
20
120.12500000000001
10
140.745
20
125.92500000000001
10
139.94400000000002
20
125.92500000000001
10
139.94400000000002
20
129.024
10
140.745
20
129.024
10
140.745
20
130.02500000000001
10
154.744
20
130.02500000000001
10
154.744
20
129.024
10
155.54500000000002
20
129.024
10
155.54500000000002
20
125.92500000000001
0
LWPOLYLINE
5
129
100
AcDbEntity
8
0
100
AcDbPolyline
90
20
70
1
43
0.0
10
121.69499999999999
20
129.024
10
121.69499999999999
20
130.02500000000001
10
135.69400000000002
20
130.02500000000001
10
135.69400000000002
20
129.024
10
136.495
20
129.024
10
136.495
20
125.92500000000001
10
135.69400000000002
20
125.92500000000001
10
135.69400000000002
20
120.12500000000001
10
136.495
20
120.12500000000001
10
136.495
20
117.02500000000001
10
135.69400000000002
20
117.02500000000001
10
135.69400000000002
20
116.02500000000001
10
121.69499999999999
20
116.02500000000001
10
121.69499999999999
20
117.02500000000001
10
120.89400000000001
20
117.02500000000001
10
120.89400000000001
20
120.12500000000001
10
121.69499999999999
20
120.12500000000001
10
121.69499999999999
20
125.92500000000001
10
120.89400000000001
20
125.92500000000001
10
120.89400000000001
20
129.024
0
LWPOLYLINE
5
130
100
AcDbEntity
8
0
100
AcDbPolyline
90
20
70
1
43
0.0
10
140.745
20
90.924200000000013
10
140.745
20
91.924700000000001
10
154.744
20
91.924700000000001
10
154.744
20
90.924200000000013
10
155.54500000000002
20
90.924200000000013
10
155.54500000000002
20
87.825100000000006
10
154.744
20
87.825100000000006
10
154.744
20
82.025100000000009
10
155.54500000000002
20
82.025100000000009
10
155.54500000000002
20
78.924499999999995
10
154.744
20
78.924499999999995
10
154.744
20
77.925399999999996
10
140.745
20
77.925399999999996
10
140.745
20
78.924499999999995
10
139.94400000000002
20
78.924499999999995
10
139.94400000000002
20
82.025100000000009
10
140.745
20
82.025100000000009
10
140.745
20
87.825100000000006
10
139.94400000000002
20
87.825100000000006
10
139.94400000000002
20
90.924200000000013
0
LINE
5
131
100
AcDbEntity
8
0
100
AcDbLine
10
176.32000000000002
20
-2.9260000000000161
30
0
11
179.59500000000003
21
-2.9260000000000161
31
0
0
LINE
5
132
100
AcDbEntity
8
0
100
AcDbLine
10
179.59500000000003
20
-2.9260000000000161
30
0
11
176.32000000000002
21
-2.9260000000000161
31
0
0
LWPOLYLINE
5
133
100
AcDbEntity
8
0
100
AcDbPolyline
90
17
70
1
43
0.0
10
179.59499999999997
20
42.073999999999984
10
179.59499999999997
20
132.07399999999996
42
0.41421356237309453
10
169.59499999999997
20
142.07399999999996
10
53.147999999999982
20
142.07399999999996
42
0.4142135623730942
10
38.147999999999975
20
127.07399999999996
10
38.147999999999982
20
81.630053912112359
42
-0.29147341958608625
10
29.48727392611049
20
68.035437106562597
10
13.255726073889477
20
60.46654203936253
42
0.29147341958608641
10
4.5949999999999847
20
46.871925233812746
10
4.5949999999999847
20
7.2355605703858945
42
0.41895372428623612
10
14.593694823930594
20
-2.9260000000000175
10
59.42389210047574
20
-2.9260000000000153
42
0.22169466264293941
10
78.575003178450302
20
6.0043097578365767
10
95.954018871095855
20
26.715814145298054
42
-0.22169466264293999
10
107.44468551788052
20
32.073999999999963
10
165.12475522098771
20
32.073999999999963
10
169.59499999999994
20
32.073999999999963
42
0.41421356237309503
0
LINE
5
134
100
AcDbEntity
8
0
100
AcDbLine
10
47.529000000000039
20
72.073999999999998
30
0
11
94.90142757273567
21
72.073999999999998
31
0
0
LINE
5
135
100
AcDbEntity
8
0
100
AcDbLine
10
169.59499999999997
20
142.07399999999996
30
0
11
53.147999999999982
21
142.07399999999996
31
0
0
LINE
5
136
100
AcDbEntity
8
0
100
AcDbLine
10
38.147999999999989
20
72.073999999999941
30
0
11
74.530408900457928
21
72.073999999999941
31
0
0
ENDSEC
0
SECTION
2
OBJECTS
0
DICTIONARY
5
C
100
AcDbDictionary
3
ACAD_GROUP
350
D
3
ACAD_MLINESTYLE
350
17
0
DICTIONARY
5
D
100
AcDbDictionary
0
DICTIONARY
5
1A
330
C
100
AcDbDictionary
0
DICTIONARY
5
17
100
AcDbDictionary
0
ENDSEC
0
EOF
