0
SECTION
2
HEADER
9
$INSUNITS
70
4
9
$ACADVER
1
AC1014
9
$HANDSEED
5
FFFF
0
ENDSEC
0
SECTION
2
TABLES
0
TABLE
2
VPORT
5
8
100
AcDbSymbolTable
0
ENDTAB
0
TABLE
2
LTYPE
5
5
100
AcDbSymbolTable
0
LTYPE
5
14
100
AcDbSymbolTableRecord
100
AcDbLinetypeTableRecord
2
BYBLOCK
70
0
0
LTYPE
5
15
100
AcDbSymbolTableRecord
100
AcDbLinetypeTableRecord
2
BYLAYER
70
0
0
ENDTAB
0
TABLE
2
LAYER
5
2
100
AcDbSymbolTable
70
2
0
LAYER
5
50
100
AcDbSymbolTableRecord
100
AcDbLayerTableRecord
2
0
70
0
6
CONTINUOUS
0
ENDTAB
0
TABLE
2
STYLE
5
3
100
AcDbSymbolTable
70
1
0
STYLE
5
11
100
AcDbSymbolTableRecord
100
AcDbTextStyleTableRecord
2
STANDARD
70
0
0
ENDTAB
0
TABLE
2
VIEW
5
6
100
AcDbSymbolTable
70
0
0
ENDTAB
0
TABLE
2
UCS
5
7
100
AcDbSymbolTable
70
0
0
ENDTAB
0
TABLE
2
APPID
5
9
100
AcDbSymbolTable
70
2
0
APPID
5
12
100
AcDbSymbolTableRecord
100
AcDbRegAppTableRecord
2
ACAD
70
0
0
ENDTAB
0
TABLE
2
DIMSTYLE
5
A
100
AcDbSymbolTable
70
1
0
ENDTAB
0
TABLE
2
BLOCK_RECORD
5
1
100
AcDbSymbolTable
70
1
0
BLOCK_RECORD
5
1F
100
AcDbSymbolTableRecord
100
AcDbBlockTableRecord
2
*MODEL_SPACE
0
BLOCK_RECORD
5
1B
100
AcDbSymbolTableRecord
100
AcDbBlockTableRecord
2
*PAPER_SPACE
0
ENDTAB
0
ENDSEC
0
SECTION
2
BLOCKS
0
BLOCK
5
20
100
AcDbEntity
100
AcDbBlockBegin
2
*MODEL_SPACE
0
ENDBLK
5
21
100
AcDbEntity
100
AcDbBlockEnd
0
BLOCK
5
1C
100
AcDbEntity
100
AcDbBlockBegin
2
*PAPER_SPACE
0
ENDBLK
5
1D
100
AcDbEntity
100
AcDbBlockEnd
0
ENDSEC
0
SECTION
2
ENTITIES
0
ARC
5
100
100
AcDbEntity
8
0
100
AcDbCircle
10
99.380990000000011
20
45.977065570736386
30
0
40
14.999999999999998
210
0
220
0
230
1
100
AcDbArc
50
115.00000000000003
51
180
0
LWPOLYLINE
5
101
100
AcDbEntity
8
0
100
AcDbPolyline
90
20
70
1
43
0.0
10
132.30199999999999
20
36.976799999999997
10
132.99499999999998
20
37.376500000000007
10
131.44499999999999
20
40.062500000000007
10
130.75199999999998
20
39.6614
10
130.25099999999998
20
40.528199999999998
10
118.12700000000004
20
33.527700000000003
10
118.628
20
32.662199999999999
10
117.93400000000003
20
32.262599999999999
10
119.48499999999999
20
29.576799999999999
10
120.17799999999997
20
29.976500000000001
10
123.07799999999997
20
24.953500000000002
10
122.38399999999999
20
24.553899999999999
10
123.934
20
21.869499999999999
10
124.62799999999999
20
22.270499999999998
10
125.12799999999999
20
21.403700000000004
10
137.25200000000001
20
28.404100000000003
10
136.75200000000001
20
29.269600000000004
10
137.44499999999999
20
29.6706
10
135.89499999999998
20
32.3536
10
135.20099999999999
20
31.953900000000001
0
LWPOLYLINE
5
102
100
AcDbEntity
8
0
100
AcDbPolyline
90
20
70
1
43
0.0
10
143.53200000000001
20
62.975099999999998
10
143.53200000000001
20
59.874499999999998
10
144.33099999999999
20
59.874499999999998
10
144.33099999999999
20
58.875400000000006
10
158.33169999999998
20
58.875400000000006
10
158.33169999999998
20
59.874499999999998
10
159.1311
20
59.874499999999998
10
159.1311
20
62.975099999999998
10
158.33169999999998
20
62.975099999999998
10
158.33169999999998
20
68.775099999999995
10
159.1311
20
68.775099999999995
10
159.1311
20
71.874200000000002
10
158.33169999999998
20
71.874200000000002
10
158.33169999999998
20
72.874700000000004
10
144.33099999999999
20
72.874700000000004
10
144.33099999999999
20
71.874200000000002
10
143.53200000000001
20
71.874200000000002
10
143.53200000000001
20
68.775099999999995
10
144.33099999999999
20
68.775099999999995
10
144.33099999999999
20
62.975099999999998
0
LWPOLYLINE
5
103
100
AcDbEntity
8
0
100
AcDbPolyline
90
48
70
1
43
0.0
10
142.892
20
47.335700000000003
10
140.46700000000001
20
45.935499999999998
10
140.87900000000002
20
45.220500000000001
10
135.44899999999998
20
42.085299999999997
10
136.31200000000001
20
40.59170000000001
10
135.46299999999999
20
40.102400000000003
10
137.114
20
37.244200000000006
10
137.96199999999999
20
37.733499999999999
10
138.82400000000001
20
36.239800000000002
10
139.4913534117554
20
36.625144444834845
10
139.85399999999998
20
35.997100000000003
10
140.25299999999999
20
35.303899999999999
10
139.38799999999998
20
34.803800000000003
10
146.387
20
22.6798
10
147.25400000000002
20
23.18
10
147.65299999999999
20
22.486799999999999
10
148.01581363561328
20
21.858438144396612
10
147.34999999999999
20
21.474000000000004
10
148.21200000000002
20
19.980200000000004
10
147.364
20
19.489599999999996
10
149.01299999999998
20
16.631499999999999
10
149.86099999999999
20
17.122099999999996
10
150.72500000000002
20
15.628299999999999
10
156.15399999999997
20
18.763399999999997
10
156.56639999999999
20
18.049600000000005
10
158.99170000000001
20
19.4496
10
158.57969999999997
20
20.163499999999999
10
161.37719999999999
20
21.778500000000001
10
160.51330000000002
20
23.272300000000001
10
161.3109
20
23.732600000000001
10
159.6602
20
26.590600000000002
10
158.86369999999999
20
26.130400000000002
10
158.00110000000001
20
27.624200000000002
10
157.63848157150784
20
28.251806119673738
10
158.04519999999999
20
28.486799999999999
10
157.6455
20
29.1799
10
158.51089999999999
20
29.680199999999999
10
151.512
20
41.804200000000009
10
150.64499999999998
20
41.303899999999999
10
150.245
20
41.997100000000003
10
149.83923468676687
20
41.762711571670401
10
149.477
20
42.389800000000008
10
148.614
20
43.883800000000008
10
149.41
20
44.343800000000002
10
147.761
20
47.201999999999998
10
146.96299999999997
20
46.741599999999998
10
146.10199999999998
20
48.235300000000009
10
143.304
20
46.620300000000007
0
LWPOLYLINE
5
104
100
AcDbEntity
8
0
100
AcDbPolyline
90
20
70
1
43
0.0
10
163.381
20
62.975099999999998
10
162.58160000000001
20
62.975099999999998
10
162.58160000000001
20
59.874499999999998
10
163.381
20
59.874499999999998
10
163.381
20
58.875400000000006
10
177.38030000000003
20
58.875400000000006
10
177.38030000000003
20
59.874499999999998
10
178.18110000000001
20
59.874499999999998
10
178.18110000000001
20
62.975099999999998
10
177.38030000000003
20
62.975099999999998
10
177.38030000000003
20
68.775099999999995
10
178.18110000000001
20
68.775099999999995
10
178.18110000000001
20
71.874200000000002
10
177.38030000000003
20
71.874200000000002
10
177.38030000000003
20
72.874700000000004
10
163.381
20
72.874700000000004
10
163.381
20
71.874200000000002
10
162.58160000000001
20
71.874200000000002
10
162.58160000000001
20
68.775099999999995
10
163.381
20
68.775099999999995
0
LWPOLYLINE
5
105
100
AcDbEntity
8
0
100
AcDbPolyline
90
20
70
1
43
0.0
10
220.53100000000001
20
68.775099999999995
10
220.53100000000001
20
62.975099999999998
10
219.73020000000002
20
62.975099999999998
10
219.73020000000002
20
59.874499999999998
10
220.53100000000001
20
59.874499999999998
10
220.53100000000001
20
58.875400000000006
10
234.53030000000001
20
58.875400000000006
10
234.53030000000001
20
59.874499999999998
10
235.33100000000002
20
59.874499999999998
10
235.33100000000002
20
62.975099999999998
10
234.53030000000001
20
62.975099999999998
10
234.53030000000001
20
68.775099999999995
10
235.33100000000002
20
68.775099999999995
10
235.33100000000002
20
71.874200000000002
10
234.53030000000001
20
71.874200000000002
10
234.53030000000001
20
72.874700000000004
10
220.53100000000001
20
72.874700000000004
10
220.53100000000001
20
71.874200000000002
10
219.73020000000002
20
71.874200000000002
10
219.73020000000002
20
68.775099999999995
0
LWPOLYLINE
5
106
100
AcDbEntity
8
0
100
AcDbPolyline
90
20
70
1
43
0.0
10
253.58035000000001
20
62.975099999999998
10
253.58035000000001
20
68.775099999999995
10
254.38099
20
68.775099999999995
10
254.38099
20
71.874200000000002
10
253.58035000000001
20
71.874200000000002
10
253.58035000000001
20
72.874700000000004
10
239.58079999999998
20
72.874700000000004
10
239.58079999999998
20
71.874200000000002
10
238.78019999999998
20
71.874200000000002
10
238.78019999999998
20
68.775099999999995
10
239.58079999999998
20
68.775099999999995
10
239.58079999999998
20
62.975099999999998
10
238.78019999999998
20
62.975099999999998
10
238.78019999999998
20
59.874499999999998
10
239.58079999999998
20
59.874499999999998
10
239.58079999999998
20
58.875400000000006
10
253.58035000000001
20
58.875400000000006
10
253.58035000000001
20
59.874499999999998
10
254.38099
20
59.874499999999998
10
254.38099
20
62.975099999999998
0
LWPOLYLINE
5
107
100
AcDbEntity
8
0
100
AcDbPolyline
90
20
70
1
43
0.0
10
220.53100000000001
20
130.02500000000001
10
220.53100000000001
20
129.024
10
219.73020000000002
20
129.024
10
219.73020000000002
20
125.92500000000001
10
220.53100000000001
20
125.92500000000001
10
220.53100000000001
20
120.12500000000001
10
219.73020000000002
20
120.12500000000001
10
219.73020000000002
20
117.02500000000001
10
220.53100000000001
20
117.02500000000001
10
220.53100000000001
20
116.02500000000001
10
234.53030000000001
20
116.02500000000001
10
234.53030000000001
20
117.02500000000001
10
235.33100000000002
20
117.02500000000001
10
235.33100000000002
20
120.12500000000001
10
234.53030000000001
20
120.12500000000001
10
234.53030000000001
20
125.92500000000001
10
235.33100000000002
20
125.92500000000001
10
235.33100000000002
20
129.024
10
234.53030000000001
20
129.024
10
234.53030000000001
20
130.02500000000001
0
LWPOLYLINE
5
108
100
AcDbEntity
8
0
100
AcDbPolyline
90
20
70
1
43
0.0
10
143.53200000000001
20
101.07500000000002
10
143.53200000000001
20
97.974500000000006
10
144.33099999999999
20
97.974500000000006
10
144.33099999999999
20
96.975400000000008
10
158.33169999999998
20
96.975400000000008
10
158.33169999999998
20
97.974500000000006
10
159.1311
20
97.974500000000006
10
159.1311
20
101.07500000000002
10
158.33169999999998
20
101.07500000000002
10
158.33169999999998
20
106.875
10
159.1311
20
106.875
10
159.1311
20
109.97399999999999
10
158.33169999999998
20
109.97399999999999
10
158.33169999999998
20
110.97499999999999
10
144.33099999999999
20
110.97499999999999
10
144.33099999999999
20
109.97399999999999
10
143.53200000000001
20
109.97399999999999
10
143.53200000000001
20
106.875
10
144.33099999999999
20
106.875
10
144.33099999999999
20
101.07500000000002
0
LWPOLYLINE
5
109
100
AcDbEntity
8
0
100
AcDbPolyline
90
20
70
1
43
0.0
10
215.4803
20
110.97499999999999
10
201.48099999999999
20
110.97499999999999
10
201.48099999999999
20
109.97399999999999
10
200.68020000000001
20
109.97399999999999
10
200.68020000000001
20
106.875
10
201.48099999999999
20
106.875
10
201.48099999999999
20
101.07500000000002
10
200.68020000000001
20
101.07500000000002
10
200.68020000000001
20
97.974500000000006
10
201.48099999999999
20
97.974500000000006
10
201.48099999999999
20
96.975400000000008
10
215.4803
20
96.975400000000008
10
215.4803
20
97.974500000000006
10
216.28109999999998
20
97.974500000000006
10
216.28109999999998
20
101.07500000000002
10
215.4803
20
101.07500000000002
10
215.4803
20
106.875
10
216.28109999999998
20
106.875
10
216.28109999999998
20
109.97399999999999
10
215.4803
20
109.97399999999999
0
LWPOLYLINE
5
110
100
AcDbEntity
8
0
100
AcDbPolyline
90
20
70
1
43
0.0
10
215.4803
20
59.874499999999998
10
216.28109999999998
20
59.874499999999998
10
216.28109999999998
20
62.975099999999998
10
215.4803
20
62.975099999999998
10
215.4803
20
68.775099999999995
10
216.28109999999998
20
68.775099999999995
10
216.28109999999998
20
71.874200000000002
10
215.4803
20
71.874200000000002
10
215.4803
20
72.874700000000004
10
201.48099999999999
20
72.874700000000004
10
201.48099999999999
20
71.874200000000002
10
200.68020000000001
20
71.874200000000002
10
200.68020000000001
20
68.775099999999995
10
201.48099999999999
20
68.775099999999995
10
201.48099999999999
20
62.975099999999998
10
200.68020000000001
20
62.975099999999998
10
200.68020000000001
20
59.874499999999998
10
201.48099999999999
20
59.874499999999998
10
201.48099999999999
20
58.875400000000006
10
215.4803
20
58.875400000000006
0
LWPOLYLINE
5
111
100
AcDbEntity
8
0
100
AcDbPolyline
90
20
70
1
43
0.0
10
163.381
20
87.825100000000006
10
163.381
20
82.025100000000009
10
162.58160000000001
20
82.025100000000009
10
162.58160000000001
20
78.924499999999995
10
163.381
20
78.924499999999995
10
163.381
20
77.925399999999996
10
177.38030000000003
20
77.925399999999996
10
177.38030000000003
20
78.924499999999995
10
178.18110000000001
20
78.924499999999995
10
178.18110000000001
20
82.025100000000009
10
177.38030000000003
20
82.025100000000009
10
177.38030000000003
20
87.825100000000006
10
178.18110000000001
20
87.825100000000006
10
178.18110000000001
20
90.924200000000013
10
177.38030000000003
20
90.924200000000013
10
177.38030000000003
20
91.924700000000001
10
163.381
20
91.924700000000001
10
163.381
20
90.924200000000013
10
162.58160000000001
20
90.924200000000013
10
162.58160000000001
20
87.825100000000006
0
LWPOLYLINE
5
112
100
AcDbEntity
8
0
100
AcDbPolyline
90
20
70
1
43
0.0
10
144.33099999999999
20
120.12500000000001
10
143.53200000000001
20
120.12500000000001
10
143.53200000000001
20
117.02500000000001
10
144.33099999999999
20
117.02500000000001
10
144.33099999999999
20
116.02500000000001
10
158.33169999999998
20
116.02500000000001
10
158.33169999999998
20
117.02500000000001
10
159.1311
20
117.02500000000001
10
159.1311
20
120.12500000000001
10
158.33169999999998
20
120.12500000000001
10
158.33169999999998
20
125.92500000000001
10
159.1311
20
125.92500000000001
10
159.1311
20
129.024
10
158.33169999999998
20
129.024
10
158.33169999999998
20
130.02500000000001
10
144.33099999999999
20
130.02500000000001
10
144.33099999999999
20
129.024
10
143.53200000000001
20
129.024
10
143.53200000000001
20
125.92500000000001
10
144.33099999999999
20
125.92500000000001
0
LWPOLYLINE
5
113
100
AcDbEntity
8
0
100
AcDbPolyline
90
20
70
1
43
0.0
10
220.53100000000001
20
110.97499999999999
10
220.53100000000001
20
109.97399999999999
10
219.73020000000002
20
109.97399999999999
10
219.73020000000002
20
106.875
10
220.53100000000001
20
106.875
10
220.53100000000001
20
101.07500000000002
10
219.73020000000002
20
101.07500000000002
10
219.73020000000002
20
97.974500000000006
10
220.53100000000001
20
97.974500000000006
10
220.53100000000001
20
96.975400000000008
10
234.53030000000001
20
96.975400000000008
10
234.53030000000001
20
97.974500000000006
10
235.33100000000002
20
97.974500000000006
10
235.33100000000002
20
101.07500000000002
10
234.53030000000001
20
101.07500000000002
10
234.53030000000001
20
106.875
10
235.33100000000002
20
106.875
10
235.33100000000002
20
109.97399999999999
10
234.53030000000001
20
109.97399999999999
10
234.53030000000001
20
110.97499999999999
0
LWPOLYLINE
5
114
100
AcDbEntity
8
0
100
AcDbPolyline
90
20
70
1
43
0.0
10
220.53100000000001
20
52.824200000000005
10
219.73020000000002
20
52.824200000000005
10
219.73020000000002
20
49.725099999999998
10
220.53100000000001
20
49.725099999999998
10
220.53100000000001
20
43.925100000000008
10
219.73020000000002
20
43.925100000000008
10
219.73020000000002
20
40.824500000000008
10
220.53100000000001
20
40.824500000000008
10
220.53100000000001
20
39.825400000000002
10
234.53030000000001
20
39.825400000000002
10
234.53030000000001
20
40.824500000000008
10
235.33100000000002
20
40.824500000000008
10
235.33100000000002
20
43.925100000000008
10
234.53030000000001
20
43.925100000000008
10
234.53030000000001
20
49.725099999999998
10
235.33100000000002
20
49.725099999999998
10
235.33100000000002
20
52.824200000000005
10
234.53030000000001
20
52.824200000000005
10
234.53030000000001
20
53.824700000000007
10
220.53100000000001
20
53.824700000000007
0
LWPOLYLINE
5
115
100
AcDbEntity
8
0
100
AcDbPolyline
90
20
70
1
43
0.0
10
144.33099999999999
20
87.825100000000006
10
144.33099999999999
20
82.025100000000009
10
143.53200000000001
20
82.025100000000009
10
143.53200000000001
20
78.924499999999995
10
144.33099999999999
20
78.924499999999995
10
144.33099999999999
20
77.925399999999996
10
158.33169999999998
20
77.925399999999996
10
158.33169999999998
20
78.924499999999995
10
159.1311
20
78.924499999999995
10
159.1311
20
82.025100000000009
10
158.33169999999998
20
82.025100000000009
10
158.33169999999998
20
87.825100000000006
10
159.1311
20
87.825100000000006
10
159.1311
20
90.924200000000013
10
158.33169999999998
20
90.924200000000013
10
158.33169999999998
20
91.924700000000001
10
144.33099999999999
20
91.924700000000001
10
144.33099999999999
20
90.924200000000013
10
143.53200000000001
20
90.924200000000013
10
143.53200000000001
20
87.825100000000006
0
LINE
5
116
100
AcDbEntity
8
0
100
AcDbLine
10
249.38100000000003
20
32.073999999999963
30
0
11
249.38099000000005
21
32.073999999999941
31
0
0
LWPOLYLINE
5
117
100
AcDbEntity
8
0
100
AcDbPolyline
90
20
70
1
43
0.0
10
216.28109999999998
20
52.824200000000005
10
215.4803
20
52.824200000000005
10
215.4803
20
53.824700000000007
10
201.48099999999999
20
53.824700000000007
10
201.48099999999999
20
52.824200000000005
10
200.68020000000001
20
52.824200000000005
10
200.68020000000001
20
49.725099999999998
10
201.48099999999999
20
49.725099999999998
10
201.48099999999999
20
43.925100000000008
10
200.68020000000001
20
43.925100000000008
10
200.68020000000001
20
40.824500000000008
10
201.48099999999999
20
40.824500000000008
10
201.48099999999999
20
39.825400000000002
10
215.4803
20
39.825400000000002
10
215.4803
20
40.824500000000008
10
216.28109999999998
20
40.824500000000008
10
216.28109999999998
20
43.925100000000008
10
215.4803
20
43.925100000000008
10
215.4803
20
49.725099999999998
10
216.28109999999998
20
49.725099999999998
0
LINE
5
118
100
AcDbEntity
8
0
100
AcDbLine
10
163.22028880917813
20
11.795380865697886
30
0
11
175.7400188710958
21
26.715814145298022
31
0
0
LWPOLYLINE
5
119
100
AcDbEntity
8
0
100
AcDbPolyline
90
20
70
1
43
0.0
10
182.43100000000001
20
130.02500000000001
10
182.43100000000001
20
129.024
10
181.6302
20
129.024
10
181.6302
20
125.92500000000001
10
182.43100000000001
20
125.92500000000001
10
182.43100000000001
20
120.12500000000001
10
181.6302
20
120.12500000000001
10
181.6302
20
117.02500000000001
10
182.43100000000001
20
117.02500000000001
10
182.43100000000001
20
116.02500000000001
10
196.43029999999999
20
116.02500000000001
10
196.43029999999999
20
117.02500000000001
10
197.23110000000003
20
117.02500000000001
10
197.23110000000003
20
120.12500000000001
10
196.43029999999999
20
120.12500000000001
10
196.43029999999999
20
125.92500000000001
10
197.23110000000003
20
125.92500000000001
10
197.23110000000003
20
129.024
10
196.43029999999999
20
129.024
10
196.43029999999999
20
130.02500000000001
0
LWPOLYLINE
5
120
100
AcDbEntity
8
0
100
AcDbPolyline
90
20
70
1
43
0.0
10
220.53100000000001
20
87.825100000000006
10
220.53100000000001
20
82.025100000000009
10
219.73020000000002
20
82.025100000000009
10
219.73020000000002
20
78.924499999999995
10
220.53100000000001
20
78.924499999999995
10
220.53100000000001
20
77.925399999999996
10
234.53030000000001
20
77.925399999999996
10
234.53030000000001
20
78.924499999999995
10
235.33100000000002
20
78.924499999999995
10
235.33100000000002
20
82.025100000000009
10
234.53030000000001
20
82.025100000000009
10
234.53030000000001
20
87.825100000000006
10
235.33100000000002
20
87.825100000000006
10
235.33100000000002
20
90.924200000000013
10
234.53030000000001
20
90.924200000000013
10
234.53030000000001
20
91.924700000000001
10
220.53100000000001
20
91.924700000000001
10
220.53100000000001
20
90.924200000000013
10
219.73020000000002
20
90.924200000000013
10
219.73020000000002
20
87.825100000000006
0
LWPOLYLINE
5
121
100
AcDbEntity
8
0
100
AcDbPolyline
90
20
70
1
43
0.0
10
215.4803
20
91.924700000000001
10
201.48099999999999
20
91.924700000000001
10
201.48099999999999
20
90.924200000000013
10
200.68020000000001
20
90.924200000000013
10
200.68020000000001
20
87.825100000000006
10
201.48099999999999
20
87.825100000000006
10
201.48099999999999
20
82.025100000000009
10
200.68020000000001
20
82.025100000000009
10
200.68020000000001
20
78.924499999999995
10
201.48099999999999
20
78.924499999999995
10
201.48099999999999
20
77.925399999999996
10
215.4803
20
77.925399999999996
10
215.4803
20
78.924499999999995
10
216.28109999999998
20
78.924499999999995
10
216.28109999999998
20
82.025100000000009
10
215.4803
20
82.025100000000009
10
215.4803
20
87.825100000000006
10
216.28109999999998
20
87.825100000000006
10
216.28109999999998
20
90.924200000000013
10
215.4803
20
90.924200000000013
0
LWPOLYLINE
5
122
100
AcDbEntity
8
0
100
AcDbPolyline
90
20
70
1
43
0.0
10
201.48099999999999
20
129.024
10
200.68020000000001
20
129.024
10
200.68020000000001
20
125.92500000000001
10
201.48099999999999
20
125.92500000000001
10
201.48099999999999
20
120.12500000000001
10
200.68020000000001
20
120.12500000000001
10
200.68020000000001
20
117.02500000000001
10
201.48099999999999
20
117.02500000000001
10
201.48099999999999
20
116.02500000000001
10
215.4803
20
116.02500000000001
10
215.4803
20
117.02500000000001
10
216.28109999999998
20
117.02500000000001
10
216.28109999999998
20
120.12500000000001
10
215.4803
20
120.12500000000001
10
215.4803
20
125.92500000000001
10
216.28109999999998
20
125.92500000000001
10
216.28109999999998
20
129.024
10
215.4803
20
129.024
10
215.4803
20
130.02500000000001
10
201.48099999999999
20
130.02500000000001
0
LWPOLYLINE
5
123
100
AcDbEntity
8
0
100
AcDbPolyline
90
20
70
1
43
0.0
10
146.77700000000002
20
11.906300000000005
10
146.27700000000002
20
12.771600000000003
10
146.97
20
13.171300000000006
10
145.41999999999999
20
15.857100000000006
10
144.726
20
15.4575
10
141.827
20
20.478999999999999
10
142.51999999999998
20
20.878700000000002
10
140.96999999999997
20
23.564500000000002
10
140.27699999999999
20
23.163499999999999
10
139.77599999999998
20
24.030200000000001
10
127.652
20
17.031200000000002
10
128.15300000000002
20
16.164400000000001
10
127.45899999999999
20
15.763400000000001
10
129.00999999999999
20
13.079000000000001
10
129.70299999999997
20
13.478599999999998
10
132.60400000000001
20
8.4570399999999957
10
131.90899999999999
20
8.0573700000000059
10
133.459
20
5.3716100000000022
10
134.15299999999999
20
5.7726100000000002
10
134.65299999999999
20
4.9058299999999999
0
LWPOLYLINE
5
124
100
AcDbEntity
8
0
100
AcDbPolyline
90
20
70
1
43
0.0
10
197.23110000000003
20
106.875
10
197.23110000000003
20
109.97399999999999
10
196.43029999999999
20
109.97399999999999
10
196.43029999999999
20
110.97499999999999
10
182.43100000000001
20
110.97499999999999
10
182.43100000000001
20
109.97399999999999
10
181.6302
20
109.97399999999999
10
181.6302
20
106.875
10
182.43100000000001
20
106.875
10
182.43100000000001
20
101.07500000000002
10
181.6302
20
101.07500000000002
10
181.6302
20
97.974500000000006
10
182.43100000000001
20
97.974500000000006
10
182.43100000000001
20
96.975400000000008
10
196.43029999999999
20
96.975400000000008
10
196.43029999999999
20
97.974500000000006
10
197.23110000000003
20
97.974500000000006
10
197.23110000000003
20
101.07500000000002
10
196.43029999999999
20
101.07500000000002
10
196.43029999999999
20
106.875
0
LWPOLYLINE
5
125
100
AcDbEntity
8
0
100
AcDbPolyline
90
20
70
1
43
0.0
10
254.38099
20
49.725099999999998
10
254.38099
20
52.824200000000005
10
253.58035000000001
20
52.824200000000005
10
253.58035000000001
20
53.824700000000007
10
239.58079999999998
20
53.824700000000007
10
239.58079999999998
20
52.824200000000005
10
238.78019999999998
20
52.824200000000005
10
238.78019999999998
20
49.725099999999998
10
239.58079999999998
20
49.725099999999998
10
239.58079999999998
20
43.925100000000008
10
238.78019999999998
20
43.925100000000008
10
238.78019999999998
20
40.824500000000008
10
239.58079999999998
20
40.824500000000008
10
239.58079999999998
20
39.825400000000002
10
253.58035000000001
20
39.825400000000002
10
253.58035000000001
20
40.824500000000008
10
254.38099
20
40.824500000000008
10
254.38099
20
43.925100000000008
10
253.58035000000001
20
43.925100000000008
10
253.58035000000001
20
49.725099999999998
0
LWPOLYLINE
5
126
100
AcDbEntity
8
0
100
AcDbPolyline
90
20
70
1
43
0.0
10
162.58160000000001
20
125.92500000000001
10
163.381
20
125.92500000000001
10
163.381
20
120.12500000000001
10
162.58160000000001
20
120.12500000000001
10
162.58160000000001
20
117.02500000000001
10
163.381
20
117.02500000000001
10
163.381
20
116.02500000000001
10
177.38030000000003
20
116.02500000000001
10
177.38030000000003
20
117.02500000000001
10
178.18110000000001
20
117.02500000000001
10
178.18110000000001
20
120.12500000000001
10
177.38030000000003
20
120.12500000000001
10
177.38030000000003
20
125.92500000000001
10
178.18110000000001
20
125.92500000000001
10
178.18110000000001
20
129.024
10
177.38030000000003
20
129.024
10
177.38030000000003
20
130.02500000000001
10
163.381
20
130.02500000000001
10
163.381
20
129.024
10
162.58160000000001
20
129.024
0
LWPOLYLINE
5
127
100
AcDbEntity
8
0
100
AcDbPolyline
90
20
70
1
43
0.0
10
239.58079999999998
20
129.024
10
238.78019999999998
20
129.024
10
238.78019999999998
20
125.92500000000001
10
239.58079999999998
20
125.92500000000001
10
239.58079999999998
20
120.12500000000001
10
238.78019999999998
20
120.12500000000001
10
238.78019999999998
20
117.02500000000001
10
239.58079999999998
20
117.02500000000001
10
239.58079999999998
20
116.02500000000001
10
253.58035000000001
20
116.02500000000001
10
253.58035000000001
20
117.02500000000001
10
254.38099
20
117.02500000000001
10
254.38099
20
120.12500000000001
10
253.58035000000001
20
120.12500000000001
10
253.58035000000001
20
125.92500000000001
10
254.38099
20
125.92500000000001
10
254.38099
20
129.024
10
253.58035000000001
20
129.024
10
253.58035000000001
20
130.02500000000001
10
239.58079999999998
20
130.02500000000001
0
LWPOLYLINE
5
128
100
AcDbEntity
8
0
100
AcDbPolyline
90
20
70
1
43
0.0
10
253.58035000000001
20
109.97399999999999
10
253.58035000000001
20
110.97499999999999
10
239.58079999999998
20
110.97499999999999
10
239.58079999999998
20
109.97399999999999
10
238.78019999999998
20
109.97399999999999
10
238.78019999999998
20
106.875
10
239.58079999999998
20
106.875
10
239.58079999999998
20
101.07500000000002
10
238.78019999999998
20
101.07500000000002
10
238.78019999999998
20
97.974500000000006
10
239.58079999999998
20
97.974500000000006
10
239.58079999999998
20
96.975400000000008
10
253.58035000000001
20
96.975400000000008
10
253.58035000000001
20
97.974500000000006
10
254.38099
20
97.974500000000006
10
254.38099
20
101.07500000000002
10
253.58035000000001
20
101.07500000000002
10
253.58035000000001
20
106.875
10
254.38099
20
106.875
10
254.38099
20
109.97399999999999
0
ARC
5
129
100
AcDbEntity
8
0
100
AcDbCircle
10
249.38099
20
132.07399999999998
30
0
40
10
210
0
220
-0
230
1
100
AcDbArc
50
0
51
90
0
ARC
5
130
100
AcDbEntity
8
0
100
AcDbCircle
10
249.38098999999997
20
42.073999999999984
30
0
40
10.000000000000036
210
0
220
0
230
1
100
AcDbArc
50
270.00000000000051
51
360
0
LWPOLYLINE
5
131
100
AcDbEntity
8
0
100
AcDbPolyline
90
20
70
1
43
0.0
10
239.58079999999998
20
77.925399999999996
10
253.58035000000001
20
77.925399999999996
10
253.58035000000001
20
78.924499999999995
10
254.38099
20
78.924499999999995
10
254.38099
20
82.025100000000009
10
253.58035000000001
20
82.025100000000009
10
253.58035000000001
20
87.825100000000006
10
254.38099
20
87.825100000000006
10
254.38099
20
90.924200000000013
10
253.58035000000001
20
90.924200000000013
10
253.58035000000001
20
91.924700000000001
10
239.58079999999998
20
91.924700000000001
10
239.58079999999998
20
90.924200000000013
10
238.78019999999998
20
90.924200000000013
10
238.78019999999998
20
87.825100000000006
10
239.58079999999998
20
87.825100000000006
10
239.58079999999998
20
82.025100000000009
10
238.78019999999998
20
82.025100000000009
10
238.78019999999998
20
78.924499999999995
10
239.58079999999998
20
78.924499999999995
0
LWPOLYLINE
5
132
100
AcDbEntity
8
0
100
AcDbPolyline
90
20
70
1
43
0.0
10
177.38030000000003
20
106.875
10
178.18110000000001
20
106.875
10
178.18110000000001
20
109.97399999999999
10
177.38030000000003
20
109.97399999999999
10
177.38030000000003
20
110.97499999999999
10
163.381
20
110.97499999999999
10
163.381
20
109.97399999999999
10
162.58160000000001
20
109.97399999999999
10
162.58160000000001
20
106.875
10
163.381
20
106.875
10
163.381
20
101.07500000000002
10
162.58160000000001
20
101.07500000000002
10
162.58160000000001
20
97.974500000000006
10
163.381
20
97.974500000000006
10
163.381
20
96.975400000000008
10
177.38030000000003
20
96.975400000000008
10
177.38030000000003
20
97.974500000000006
10
178.18110000000001
20
97.974500000000006
10
178.18110000000001
20
101.07500000000002
10
177.38030000000003
20
101.07500000000002
0
ARC
5
133
100
AcDbEntity
8
0
100
AcDbCircle
10
139.20989210047588
20
22.073999999999824
30
0
40
24.999999999999837
210
0
220
0
230
1
100
AcDbArc
50
269.99999999999983
51
320.00000000000011
0
LINE
5
134
100
AcDbEntity
8
0
100
AcDbLine
10
158.36100317845023
20
6.0043097578364879
30
0
11
175.7400188710958
21
26.715814145298022
31
0
0
LINE
5
135
100
AcDbEntity
8
0
100
AcDbLine
10
139.20989210047574
20
-2.9260000000000197
30
0
11
94.380999999999986
21
-2.9260000000000197
31
0
0
LWPOLYLINE
5
136
100
AcDbEntity
8
0
100
AcDbPolyline
90
20
70
1
43
0.0
10
196.43029999999999
20
82.025100000000009
10
196.43029999999999
20
87.825100000000006
10
197.23110000000003
20
87.825100000000006
10
197.23110000000003
20
90.924200000000013
10
196.43029999999999
20
90.924200000000013
10
196.43029999999999
20
91.924700000000001
10
182.43100000000001
20
91.924700000000001
10
182.43100000000001
20
90.924200000000013
10
181.6302
20
90.924200000000013
10
181.6302
20
87.825100000000006
10
182.43100000000001
20
87.825100000000006
10
182.43100000000001
20
82.025100000000009
10
181.6302
20
82.025100000000009
10
181.6302
20
78.924499999999995
10
182.43100000000001
20
78.924499999999995
10
182.43100000000001
20
77.925399999999996
10
196.43029999999999
20
77.925399999999996
10
196.43029999999999
20
78.924499999999995
10
197.23110000000003
20
78.924499999999995
10
197.23110000000003
20
82.025100000000009
0
LWPOLYLINE
5
137
100
AcDbEntity
8
0
100
AcDbPolyline
90
20
70
1
43
0.0
10
197.23110000000003
20
71.874200000000002
10
196.43029999999999
20
71.874200000000002
10
196.43029999999999
20
72.874700000000004
10
182.43100000000001
20
72.874700000000004
10
182.43100000000001
20
71.874200000000002
10
181.6302
20
71.874200000000002
10
181.6302
20
68.775099999999995
10
182.43100000000001
20
68.775099999999995
10
182.43100000000001
20
62.975099999999998
10
181.6302
20
62.975099999999998
10
181.6302
20
59.874499999999998
10
182.43100000000001
20
59.874499999999998
10
182.43100000000001
20
58.875400000000006
10
196.43029999999999
20
58.875400000000006
10
196.43029999999999
20
59.874499999999998
10
197.23110000000003
20
59.874499999999998
10
197.23110000000003
20
62.975099999999998
10
196.43029999999999
20
62.975099999999998
10
196.43029999999999
20
68.775099999999995
10
197.23110000000003
20
68.775099999999995
0
ARC
5
138
100
AcDbEntity
8
0
100
AcDbCircle
10
94.380990000000011
20
7.0739999999999714
30
0
40
10
210
0
220
0
230
1
100
AcDbArc
50
180
51
270
0
LINE
5
139
100
AcDbEntity
8
0
100
AcDbLine
10
111.19229666646291
20
68.03543710656264
30
0
11
93.041716073889518
21
59.571682376286134
31
0
0
LWPOLYLINE
5
140
100
AcDbEntity
8
0
100
AcDbPolyline
90
20
70
1
43
0.0
10
196.43029999999999
20
43.925100000000008
10
196.43029999999999
20
49.725099999999998
10
197.23110000000003
20
49.725099999999998
10
197.23110000000003
20
52.824200000000005
10
196.43029999999999
20
52.824200000000005
10
196.43029999999999
20
53.824700000000007
10
182.43100000000001
20
53.824700000000007
10
182.43100000000001
20
52.824200000000005
10
181.6302
20
52.824200000000005
10
181.6302
20
49.725099999999998
10
182.43100000000001
20
49.725099999999998
10
182.43100000000001
20
43.925100000000008
10
181.6302
20
43.925100000000008
10
181.6302
20
40.824500000000008
10
182.43100000000001
20
40.824500000000008
10
182.43100000000001
20
39.825400000000002
10
196.43029999999999
20
39.825400000000002
10
196.43029999999999
20
40.824500000000008
10
197.23110000000003
20
40.824500000000008
10
197.23110000000003
20
43.925100000000008
0
LINE
5
141
100
AcDbEntity
8
0
100
AcDbLine
10
187.23068551788054
20
32.073999999999963
30
0
11
187.23068551788046
21
32.073999999999963
31
0
0
LINE
5
142
100
AcDbEntity
8
0
100
AcDbLine
10
259.38099
20
42.073999999999963
30
0
11
259.38099
21
132.07399999999998
31
0
0
LINE
5
143
100
AcDbEntity
8
0
100
AcDbLine
10
119.85302274035243
20
72.073999999999998
30
0
11
80.912349651272351
21
72.074000000000012
31
0
0
LINE
5
144
100
AcDbEntity
8
0
100
AcDbLine
10
119.85302274035242
20
132.07399999999996
30
0
11
119.85302274035242
21
81.630053912112416
31
0
0
LINE
5
145
100
AcDbEntity
8
0
100
AcDbLine
10
84.380990000000011
20
45.977065570736386
30
0
11
84.380990000000011
21
7.0739999999999803
31
0
0
ARC
5
146
100
AcDbEntity
8
0
100
AcDbCircle
10
104.85302274035242
20
81.630053912112416
30
0
40
15.000000000000021
210
0
220
0
230
1
100
AcDbArc
50
-65.000000000000028
51
0
0
ARC
5
147
100
AcDbEntity
8
0
100
AcDbCircle
10
129.85302274035243
20
132.07399999999996
30
0
40
10.000000000000018
210
0
220
-0
230
1
100
AcDbArc
50
90
51
180
0
LINE
5
148
100
AcDbEntity
8
0
100
AcDbLine
10
187.23068551788046
20
32.073999999999963
30
0
11
249.38100000000003
21
32.073999999999963
31
0
0
LINE
5
149
100
AcDbEntity
8
0
100
AcDbLine
10
249.38099
20
142.07399999999998
30
0
11
129.85302274035243
21
142.07399999999998
31
0
0
ARC
5
150
100
AcDbEntity
8
0
100
AcDbCircle
10
187.23068551788046
20
17.074000000000069
30
0
40
14.999999999999893
210
0
220
-0
230
1
100
AcDbArc
50
90
51
140.00000000000006
0
LINE
5
151
100
AcDbEntity
8
0
100
AcDbLine
10
187.23068551788054
20
32.073999999999963
30
0
11
249.38100000000003
21
32.073999999999963
31
0
0
LINE
5
152
100
AcDbEntity
8
0
100
AcDbLine
10
139.20989210047574
20
-2.9260000000000197
30
0
11
94.380999999999986
21
-2.9260000000000197
31
0
0
LINE
5
153
100
AcDbEntity
8
0
100
AcDbLine
10
94.380999999999986
20
-2.9260000000000197
30
0
11
94.380990000000011
21
-2.9260000000000197
31
0
0
ENDSEC
0
SECTION
2
OBJECTS
0
DICTIONARY
5
C
100
AcDbDictionary
3
ACAD_GROUP
350
D
3
ACAD_MLINESTYLE
350
17
0
DICTIONARY
5
D
100
AcDbDictionary
0
DICTIONARY
5
1A
330
C
100
AcDbDictionary
0
DICTIONARY
5
17
100
AcDbDictionary
0
ENDSEC
0
EOF
